<?xml version="1.0" encoding="UTF-8" standalone="no"?>
<!DOCTYPE svg PUBLIC "-//W3C//DTD SVG 1.1//EN"
 "http://www.w3.org/Graphics/SVG/1.1/DTD/svg11.dtd">
<!-- Generated by graphviz version 14.0.1 (20251006.0113)
 -->
<!-- Title: CoreReal Pages: 1 -->
<svg width="1095pt" height="121pt"
 viewBox="0.00 0.00 1095.00 121.00" xmlns="http://www.w3.org/2000/svg" xmlns:xlink="http://www.w3.org/1999/xlink">
<g id="graph0" class="graph" transform="scale(1 1) rotate(0) translate(4 117.08)">
<title>CoreReal</title>
<polygon fill="white" stroke="none" points="-4,4 -4,-117.08 1091.07,-117.08 1091.07,4 -4,4"/>
<!-- adversary -->
<g id="node1" class="node">
<title>adversary</title>
<ellipse fill="#e6e6e6" stroke="black" cx="48.91" cy="-72.08" rx="48.91" ry="18"/>
<text xml:space="preserve" text-anchor="middle" x="48.91" y="-66.28" font-family="Helvetica,sans-Serif" font-size="14.00">adversary</text>
</g>
<!-- LayerMap -->
<g id="node5" class="node">
<title>LayerMap</title>
<polygon fill="none" stroke="black" points="482.69,-113.08 405.94,-113.08 405.94,-77.08 482.69,-77.08 482.69,-113.08"/>
<text xml:space="preserve" text-anchor="middle" x="444.32" y="-89.28" font-family="Helvetica,sans-Serif" font-size="14.00">LayerMap</text>
</g>
<!-- adversary&#45;&gt;LayerMap -->
<g id="edge1" class="edge">
<title>adversary&#45;&gt;LayerMap</title>
<path fill="none" stroke="black" d="M97.36,-74.85C172.59,-79.25 318.47,-87.78 394.52,-92.22"/>
<polygon fill="black" stroke="black" points="393.97,-95.7 404.15,-92.79 394.38,-88.71 393.97,-95.7"/>
<text xml:space="preserve" text-anchor="middle" x="215.19" y="-90.65" font-family="Times,serif" font-size="14.00">GETAOUT, SETBIT, GETKEYSIN</text>
</g>
<!-- Proxy -->
<g id="node6" class="node">
<title>Proxy</title>
<polygon fill="none" stroke="black" points="386.57,-67.08 332.57,-67.08 332.57,-31.08 386.57,-31.08 386.57,-67.08"/>
<text xml:space="preserve" text-anchor="middle" x="359.57" y="-43.28" font-family="Helvetica,sans-Serif" font-size="14.00">Proxy</text>
</g>
<!-- adversary&#45;&gt;Proxy -->
<g id="edge2" class="edge">
<title>adversary&#45;&gt;Proxy</title>
<path fill="none" stroke="black" d="M89.05,-61.51C97.8,-59.53 107.08,-57.73 115.82,-56.58 187.88,-47.09 272.97,-46.98 320.86,-47.92"/>
<polygon fill="black" stroke="black" points="320.61,-51.41 330.69,-48.14 320.77,-44.41 320.61,-51.41"/>
<text xml:space="preserve" text-anchor="middle" x="215.19" y="-59.78" font-family="Times,serif" font-size="14.00">GBLG</text>
</g>
<!-- Enc -->
<g id="node2" class="node">
<title>Enc</title>
<polygon fill="none" stroke="black" points="891.32,-67.08 837.32,-67.08 837.32,-31.08 891.32,-31.08 891.32,-67.08"/>
<text xml:space="preserve" text-anchor="middle" x="864.32" y="-43.28" font-family="Helvetica,sans-Serif" font-size="14.00">Enc</text>
</g>
<!-- Keys -->
<g id="node4" class="node">
<title>Keys</title>
<polygon fill="none" stroke="black" points="1087.07,-67.08 1033.07,-67.08 1033.07,-31.08 1087.07,-31.08 1087.07,-67.08"/>
<text xml:space="preserve" text-anchor="middle" x="1060.07" y="-43.28" font-family="Helvetica,sans-Serif" font-size="14.00">Keys</text>
</g>
<!-- Enc&#45;&gt;Keys -->
<g id="edge7" class="edge">
<title>Enc&#45;&gt;Keys</title>
<path fill="none" stroke="black" d="M891.45,-49.08C924.96,-49.08 983.3,-49.08 1021.56,-49.08"/>
<polygon fill="black" stroke="black" points="1021.22,-52.58 1031.22,-49.08 1021.22,-45.58 1021.22,-52.58"/>
<text xml:space="preserve" text-anchor="middle" x="973.07" y="-52.28" font-family="Times,serif" font-size="14.00">LGETKEYSIN</text>
</g>
<!-- Gate -->
<g id="node3" class="node">
<title>Gate</title>
<polygon fill="none" stroke="black" points="556.07,-67.08 502.07,-67.08 502.07,-31.08 556.07,-31.08 556.07,-67.08"/>
<text xml:space="preserve" text-anchor="middle" x="529.07" y="-43.28" font-family="Helvetica,sans-Serif" font-size="14.00">Gate</text>
</g>
<!-- Gate&#45;&gt;Enc -->
<g id="edge5" class="edge">
<title>Gate&#45;&gt;Enc</title>
<path fill="none" stroke="black" d="M556.49,-49.08C615.31,-49.08 757.2,-49.08 825.43,-49.08"/>
<polygon fill="black" stroke="black" points="825.37,-52.58 835.37,-49.08 825.37,-45.58 825.37,-52.58"/>
<text xml:space="preserve" text-anchor="middle" x="685.82" y="-52.28" font-family="Times,serif" font-size="14.00">LENCN, LENCM</text>
</g>
<!-- Gate&#45;&gt;Keys -->
<g id="edge6" class="edge">
<title>Gate&#45;&gt;Keys</title>
<path fill="none" stroke="black" d="M556.15,-41.48C618.17,-24.43 779.3,13.93 913.07,-5.58 951.13,-11.12 993.06,-24.41 1022.18,-34.84"/>
<polygon fill="black" stroke="black" points="1020.67,-38.02 1031.26,-38.16 1023.07,-31.44 1020.67,-38.02"/>
<text xml:space="preserve" text-anchor="middle" x="864.32" y="-8.78" font-family="Times,serif" font-size="14.00">LGETKEYSOUT</text>
</g>
<!-- LayerMap&#45;&gt;Keys -->
<g id="edge4" class="edge">
<title>LayerMap&#45;&gt;Keys</title>
<path fill="none" stroke="black" d="M482.92,-93.78C562.37,-90.99 753.15,-84.03 913.07,-76.08 958.42,-73.82 971.09,-81.4 1015.07,-70.08 1017.37,-69.48 1019.7,-68.77 1022.02,-67.96"/>
<polygon fill="black" stroke="black" points="1023.32,-71.21 1031.29,-64.24 1020.71,-64.72 1023.32,-71.21"/>
<text xml:space="preserve" text-anchor="middle" x="685.82" y="-93.56" font-family="Times,serif" font-size="14.00">LSETBIT, LGETAOUT, LGETKEYSIN</text>
</g>
<!-- Proxy&#45;&gt;Gate -->
<g id="edge3" class="edge">
<title>Proxy&#45;&gt;Gate</title>
<path fill="none" stroke="black" d="M386.74,-49.08C414.56,-49.08 458.81,-49.08 490.38,-49.08"/>
<polygon fill="black" stroke="black" points="490.29,-52.58 500.29,-49.08 490.29,-45.58 490.29,-52.58"/>
<text xml:space="preserve" text-anchor="middle" x="444.32" y="-52.28" font-family="Times,serif" font-size="14.00">LGATEGBLG</text>
</g>
</g>
</svg>
