<?xml version="1.0" encoding="UTF-8" standalone="no"?>
<!DOCTYPE svg PUBLIC "-//W3C//DTD SVG 1.1//EN"
 "http://www.w3.org/Graphics/SVG/1.1/DTD/svg11.dtd">
<!-- Generated by graphviz version 14.0.1 (20251006.0113)
 -->
<!-- Title: CoreIdeal Pages: 1 -->
<svg width="1245pt" height="143pt"
 viewBox="0.00 0.00 1245.00 143.00" xmlns="http://www.w3.org/2000/svg" xmlns:xlink="http://www.w3.org/1999/xlink">
<g id="graph0" class="graph" transform="scale(1 1) rotate(0) translate(4 139)">
<title>CoreIdeal</title>
<polygon fill="white" stroke="none" points="-4,4 -4,-139 1241.32,-139 1241.32,4 -4,4"/>
<!-- adversary -->
<g id="node1" class="node">
<title>adversary</title>
<ellipse fill="#e6e6e6" stroke="black" cx="48.91" cy="-94" rx="48.91" ry="18"/>
<text xml:space="preserve" text-anchor="middle" x="48.91" y="-88.2" font-family="Helvetica,sans-Serif" font-size="14.00">adversary</text>
</g>
<!-- LayerMap -->
<g id="node3" class="node">
<title>LayerMap</title>
<polygon fill="none" stroke="black" points="481.32,-135 404.57,-135 404.57,-99 481.32,-99 481.32,-135"/>
<text xml:space="preserve" text-anchor="middle" x="442.94" y="-111.2" font-family="Helvetica,sans-Serif" font-size="14.00">LayerMap</text>
</g>
<!-- adversary&#45;&gt;LayerMap -->
<g id="edge1" class="edge">
<title>adversary&#45;&gt;LayerMap</title>
<path fill="none" stroke="black" d="M97.59,-96.8C172.6,-101.2 317.43,-109.69 393.14,-114.14"/>
<polygon fill="black" stroke="black" points="392.53,-117.61 402.72,-114.7 392.94,-110.62 392.53,-117.61"/>
<text xml:space="preserve" text-anchor="middle" x="215.19" y="-112.57" font-family="Times,serif" font-size="14.00">GETAOUT, SETBIT, GETKEYSIN</text>
</g>
<!-- Proxy -->
<g id="node5" class="node">
<title>Proxy</title>
<polygon fill="none" stroke="black" points="386.57,-89 332.57,-89 332.57,-53 386.57,-53 386.57,-89"/>
<text xml:space="preserve" text-anchor="middle" x="359.57" y="-65.2" font-family="Helvetica,sans-Serif" font-size="14.00">Proxy</text>
</g>
<!-- adversary&#45;&gt;Proxy -->
<g id="edge2" class="edge">
<title>adversary&#45;&gt;Proxy</title>
<path fill="none" stroke="black" d="M89.05,-83.44C97.8,-81.46 107.08,-79.65 115.82,-78.5 187.88,-69.01 272.97,-68.9 320.86,-69.84"/>
<polygon fill="black" stroke="black" points="320.61,-73.34 330.69,-70.06 320.77,-66.34 320.61,-73.34"/>
<text xml:space="preserve" text-anchor="middle" x="215.19" y="-81.7" font-family="Times,serif" font-size="14.00">GBLG</text>
</g>
<!-- Keys -->
<g id="node2" class="node">
<title>Keys</title>
<polygon fill="none" stroke="black" points="1237.32,-90 1183.32,-90 1183.32,-54 1237.32,-54 1237.32,-90"/>
<text xml:space="preserve" text-anchor="middle" x="1210.32" y="-66.2" font-family="Helvetica,sans-Serif" font-size="14.00">Keys</text>
</g>
<!-- LayerMap&#45;&gt;Keys -->
<g id="edge4" class="edge">
<title>LayerMap&#45;&gt;Keys</title>
<path fill="none" stroke="black" d="M481.67,-115.41C574.82,-111.5 823.16,-101.02 1030.32,-92 1090.32,-89.39 1106.19,-96.53 1165.32,-86 1167.51,-85.61 1169.74,-85.14 1171.98,-84.61"/>
<polygon fill="black" stroke="black" points="1172.89,-87.99 1181.62,-81.99 1171.05,-81.24 1172.89,-87.99"/>
<text xml:space="preserve" text-anchor="middle" x="683.07" y="-114.67" font-family="Times,serif" font-size="14.00">LSETBIT, LGETAOUT, LGETKEYSIN</text>
</g>
<!-- Lev -->
<g id="node4" class="node">
<title>Lev</title>
<polygon fill="none" stroke="black" points="948.57,-36 894.57,-36 894.57,0 948.57,0 948.57,-36"/>
<text xml:space="preserve" text-anchor="middle" x="921.57" y="-12.2" font-family="Helvetica,sans-Serif" font-size="14.00">Lev</text>
</g>
<!-- Lev&#45;&gt;Keys -->
<g id="edge7" class="edge">
<title>Lev&#45;&gt;Keys</title>
<path fill="none" stroke="black" d="M949.03,-16.29C994.69,-14.27 1090.58,-14.11 1165.32,-41.5 1169.73,-43.12 1174.13,-45.29 1178.33,-47.73"/>
<polygon fill="black" stroke="black" points="1176.14,-50.49 1186.44,-52.97 1179.94,-44.61 1176.14,-50.49"/>
<text xml:space="preserve" text-anchor="middle" x="1106.82" y="-44.7" font-family="Times,serif" font-size="14.00">LGETBIT, LSETBIT</text>
</g>
<!-- Sim -->
<g id="node6" class="node">
<title>Sim</title>
<polygon fill="none" stroke="black" points="553.32,-89 499.32,-89 499.32,-53 553.32,-53 553.32,-89"/>
<text xml:space="preserve" text-anchor="middle" x="526.32" y="-65.2" font-family="Helvetica,sans-Serif" font-size="14.00">Sim</text>
</g>
<!-- Proxy&#45;&gt;Sim -->
<g id="edge3" class="edge">
<title>Proxy&#45;&gt;Sim</title>
<path fill="none" stroke="black" d="M387.04,-71C414.3,-71 457.03,-71 487.77,-71"/>
<polygon fill="black" stroke="black" points="487.4,-74.5 497.4,-71 487.4,-67.5 487.4,-74.5"/>
<text xml:space="preserve" text-anchor="middle" x="442.94" y="-74.2" font-family="Times,serif" font-size="14.00">LSIMGBLG</text>
</g>
<!-- Sim&#45;&gt;Keys -->
<g id="edge5" class="edge">
<title>Sim&#45;&gt;Keys</title>
<path fill="none" stroke="black" d="M553.63,-71.04C658.7,-71.19 1048.39,-71.76 1171.67,-71.94"/>
<polygon fill="black" stroke="black" points="1171.56,-75.44 1181.56,-71.96 1171.57,-68.44 1171.56,-75.44"/>
<text xml:space="preserve" text-anchor="middle" x="921.57" y="-74.93" font-family="Times,serif" font-size="14.00">LGETAOUT, LGETAIN, LGETINAIN</text>
</g>
<!-- Sim&#45;&gt;Lev -->
<g id="edge6" class="edge">
<title>Sim&#45;&gt;Lev</title>
<path fill="none" stroke="black" d="M549.85,-52.63C556.41,-48.22 563.83,-44.05 571.32,-41.5 679.6,-4.54 817.52,-9.24 882.91,-14.3"/>
<polygon fill="black" stroke="black" points="882.49,-17.78 892.75,-15.12 883.07,-10.81 882.49,-17.78"/>
<text xml:space="preserve" text-anchor="middle" x="683.07" y="-44.7" font-family="Times,serif" font-size="14.00">LEVAL</text>
</g>
</g>
</svg>
