<?xml version="1.0" encoding="UTF-8" standalone="no"?>
<!DOCTYPE svg PUBLIC "-//W3C//DTD SVG 1.1//EN"
 "http://www.w3.org/Graphics/SVG/1.1/DTD/svg11.dtd">
<!-- Generated by graphviz version 14.0.1 (20251006.0113)
 -->
<!-- Title: HybridReal Pages: 1 -->
<svg width="1359pt" height="463pt"
 viewBox="0.00 0.00 1359.00 463.00" xmlns="http://www.w3.org/2000/svg" xmlns:xlink="http://www.w3.org/1999/xlink">
<g id="graph0" class="graph" transform="scale(1 1) rotate(0) translate(4 458.92)">
<title>HybridReal</title>
<polygon fill="white" stroke="none" points="-4,4 -4,-458.92 1355.07,-458.92 1355.07,4 -4,4"/>
<!-- adversary -->
<g id="node1" class="node">
<title>adversary</title>
<ellipse fill="#e6e6e6" stroke="black" cx="48.91" cy="-164.77" rx="48.91" ry="18"/>
<text xml:space="preserve" text-anchor="middle" x="48.91" y="-158.97" font-family="Helvetica,sans-Serif" font-size="14.00">adversary</text>
</g>
<!-- LayerMap -->
<g id="node6" class="node">
<title>LayerMap</title>
<polygon fill="none" stroke="black" points="453.57,-182.77 376.82,-182.77 376.82,-146.77 453.57,-146.77 453.57,-182.77"/>
<text xml:space="preserve" text-anchor="middle" x="415.19" y="-158.97" font-family="Helvetica,sans-Serif" font-size="14.00">LayerMap</text>
</g>
<!-- adversary&#45;&gt;LayerMap -->
<g id="edge1" class="edge">
<title>adversary&#45;&gt;LayerMap</title>
<path fill="none" stroke="black" d="M98.28,-164.77C167.86,-164.77 295.47,-164.77 365.32,-164.77"/>
<polygon fill="black" stroke="black" points="364.91,-168.27 374.91,-164.77 364.91,-161.27 364.91,-168.27"/>
<text xml:space="preserve" text-anchor="middle" x="237.32" y="-167.97" font-family="Times,serif" font-size="14.00">GETAOUT, SETBIT, GBLG, GETKEYSIN</text>
</g>
<!-- Enc -->
<g id="node2" class="node">
<title>Enc</title>
<polygon fill="none" stroke="black" points="968.69,-281.77 914.69,-281.77 914.69,-245.77 968.69,-245.77 968.69,-281.77"/>
<text xml:space="preserve" text-anchor="middle" x="941.69" y="-257.97" font-family="Helvetica,sans-Serif" font-size="14.00">Enc</text>
</g>
<!-- KeysTop -->
<g id="node5" class="node">
<title>KeysTop</title>
<polygon fill="none" stroke="black" points="1311.32,-425.77 1243.57,-425.77 1243.57,-389.77 1311.32,-389.77 1311.32,-425.77"/>
<text xml:space="preserve" text-anchor="middle" x="1277.44" y="-401.97" font-family="Helvetica,sans-Serif" font-size="14.00">KeysTop</text>
</g>
<!-- Enc&#45;&gt;KeysTop -->
<g id="edge11" class="edge">
<title>Enc&#45;&gt;KeysTop</title>
<path fill="none" stroke="black" d="M968.86,-262.39C1016.63,-261.23 1119.16,-265.05 1185.82,-313.27 1198.88,-322.72 1193.58,-332.31 1203.82,-344.77 1215.09,-358.5 1229.55,-371.7 1242.59,-382.44"/>
<polygon fill="black" stroke="black" points="1240.16,-384.98 1250.15,-388.51 1244.54,-379.52 1240.16,-384.98"/>
<text xml:space="preserve" text-anchor="middle" x="1127.32" y="-316.47" font-family="Times,serif" font-size="14.00">GETKEYSIN</text>
</g>
<!-- Gate -->
<g id="node3" class="node">
<title>Gate</title>
<polygon fill="none" stroke="black" points="643.44,-228.77 589.44,-228.77 589.44,-192.77 643.44,-192.77 643.44,-228.77"/>
<text xml:space="preserve" text-anchor="middle" x="616.44" y="-204.97" font-family="Helvetica,sans-Serif" font-size="14.00">Gate</text>
</g>
<!-- Gate&#45;&gt;Enc -->
<g id="edge9" class="edge">
<title>Gate&#45;&gt;Enc</title>
<path fill="none" stroke="black" d="M643.67,-216.87C655.32,-219.48 669.22,-222.45 681.82,-224.77 760.24,-239.19 852.75,-252.16 903.21,-258.9"/>
<polygon fill="black" stroke="black" points="902.64,-262.35 913.01,-260.19 903.56,-255.41 902.64,-262.35"/>
<text xml:space="preserve" text-anchor="middle" x="748.19" y="-248.8" font-family="Times,serif" font-size="14.00">ENCN, ENCM</text>
</g>
<!-- KeysBot -->
<g id="node4" class="node">
<title>KeysBot</title>
<polygon fill="none" stroke="black" points="1310.57,-142.77 1244.32,-142.77 1244.32,-106.77 1310.57,-106.77 1310.57,-142.77"/>
<text xml:space="preserve" text-anchor="middle" x="1277.44" y="-118.97" font-family="Helvetica,sans-Serif" font-size="14.00">KeysBot</text>
</g>
<!-- Gate&#45;&gt;KeysBot -->
<g id="edge10" class="edge">
<title>Gate&#45;&gt;KeysBot</title>
<path fill="none" stroke="black" d="M643.82,-207.69C724.85,-198.16 977.25,-168.08 1185.82,-138.77 1201.27,-136.6 1218.17,-134.03 1233.15,-131.7"/>
<polygon fill="black" stroke="black" points="1233.35,-135.21 1242.68,-130.21 1232.26,-128.3 1233.35,-135.21"/>
<text xml:space="preserve" text-anchor="middle" x="941.69" y="-187.54" font-family="Times,serif" font-size="14.00">GETKEYSOUT</text>
</g>
<!-- LayerMap&#45;&gt;Gate -->
<g id="edge4" class="edge">
<title>LayerMap&#45;&gt;Gate</title>
<path fill="none" stroke="black" d="M453.99,-174.48C459.86,-175.94 465.87,-177.42 471.57,-178.77 507.72,-187.36 549.16,-196.5 578.24,-202.8"/>
<polygon fill="black" stroke="black" points="577.14,-206.14 587.66,-204.83 578.62,-199.3 577.14,-206.14"/>
<text xml:space="preserve" text-anchor="middle" x="511.32" y="-199.77" font-family="Times,serif" font-size="14.00">GBLG</text>
</g>
<!-- LayerMap&#45;&gt;KeysBot -->
<g id="edge3" class="edge">
<title>LayerMap&#45;&gt;KeysBot</title>
<path fill="none" stroke="black" d="M453.88,-154.53C459.77,-153.14 465.81,-151.83 471.57,-150.77 564.09,-133.76 587.9,-131.84 681.82,-126.27 887.55,-114.06 1134.02,-119.98 1232.58,-123.18"/>
<polygon fill="black" stroke="black" points="1232.23,-126.67 1242.34,-123.5 1232.46,-119.67 1232.23,-126.67"/>
<text xml:space="preserve" text-anchor="middle" x="748.19" y="-129.47" font-family="Times,serif" font-size="14.00">GETKEYSIN</text>
</g>
<!-- LayerMap&#45;&gt;KeysTop -->
<g id="edge2" class="edge">
<title>LayerMap&#45;&gt;KeysTop</title>
<path fill="none" stroke="black" d="M419.6,-182.96C425.73,-211.59 440.93,-267.69 471.57,-304.77 537.97,-385.14 581.17,-381.6 681.82,-408.77 898.18,-467.18 963.59,-453.75 1185.82,-424.77 1201.12,-422.77 1217.75,-419.87 1232.54,-417.02"/>
<polygon fill="black" stroke="black" points="1232.82,-420.54 1241.95,-415.17 1231.47,-413.67 1232.82,-420.54"/>
<text xml:space="preserve" text-anchor="middle" x="748.19" y="-441.62" font-family="Times,serif" font-size="14.00">SETBIT, GETAOUT</text>
</g>
<!-- LayeredGate -->
<g id="node8" class="node">
<title>LayeredGate</title>
<polygon fill="none" stroke="black" points="663.82,-93.77 569.07,-93.77 569.07,-57.77 663.82,-57.77 663.82,-93.77"/>
<text xml:space="preserve" text-anchor="middle" x="616.44" y="-69.97" font-family="Helvetica,sans-Serif" font-size="14.00">LayeredGate</text>
</g>
<!-- LayerMap&#45;&gt;LayeredGate -->
<g id="edge7" class="edge">
<title>LayerMap&#45;&gt;LayeredGate</title>
<path fill="none" stroke="black" d="M425.27,-146.39C434.51,-129.81 450.45,-106.26 471.57,-94.27 497.34,-79.63 529.82,-74.54 557.4,-73.32"/>
<polygon fill="black" stroke="black" points="557.47,-76.82 567.37,-73.05 557.28,-69.82 557.47,-76.82"/>
<text xml:space="preserve" text-anchor="middle" x="511.32" y="-97.47" font-family="Times,serif" font-size="14.00">LGATEGBLG</text>
</g>
<!-- LayeredSim -->
<g id="node10" class="node">
<title>LayeredSim</title>
<polygon fill="none" stroke="black" points="660.82,-357.77 572.07,-357.77 572.07,-321.77 660.82,-321.77 660.82,-357.77"/>
<text xml:space="preserve" text-anchor="middle" x="616.44" y="-333.97" font-family="Helvetica,sans-Serif" font-size="14.00">LayeredSim</text>
</g>
<!-- LayerMap&#45;&gt;LayeredSim -->
<g id="edge6" class="edge">
<title>LayerMap&#45;&gt;LayeredSim</title>
<path fill="none" stroke="black" d="M435.21,-183.04C445.8,-193.11 459.29,-205.77 471.57,-216.77 509.94,-251.15 555.27,-289.55 584.65,-314.16"/>
<polygon fill="black" stroke="black" points="582.15,-316.63 592.07,-320.36 586.64,-311.26 582.15,-316.63"/>
<text xml:space="preserve" text-anchor="middle" x="511.32" y="-287.52" font-family="Times,serif" font-size="14.00">LSIMGBLG</text>
</g>
<!-- RealLayersKeys -->
<g id="node11" class="node">
<title>RealLayersKeys</title>
<polygon fill="none" stroke="black" points="1334.57,-37.77 1220.32,-37.77 1220.32,-1.77 1334.57,-1.77 1334.57,-37.77"/>
<text xml:space="preserve" text-anchor="middle" x="1277.44" y="-13.97" font-family="Helvetica,sans-Serif" font-size="14.00">RealLayersKeys</text>
</g>
<!-- LayerMap&#45;&gt;RealLayersKeys -->
<g id="edge8" class="edge">
<title>LayerMap&#45;&gt;RealLayersKeys</title>
<path fill="none" stroke="black" d="M422,-146.46C429.8,-124.87 445.74,-89.42 471.57,-69.77 548.47,-11.24 585.98,-26.77 681.82,-14.27 871.4,10.46 1097.88,-3.47 1208.65,-13.06"/>
<polygon fill="black" stroke="black" points="1208.19,-16.54 1218.46,-13.93 1208.81,-9.56 1208.19,-16.54"/>
<text xml:space="preserve" text-anchor="middle" x="748.19" y="-17.47" font-family="Times,serif" font-size="14.00">LGETKEYSIN</text>
</g>
<!-- SimulatedLayersKeys -->
<g id="node12" class="node">
<title>SimulatedLayersKeys</title>
<polygon fill="none" stroke="black" points="1351.07,-335.77 1203.82,-335.77 1203.82,-299.77 1351.07,-299.77 1351.07,-335.77"/>
<text xml:space="preserve" text-anchor="middle" x="1277.44" y="-311.97" font-family="Helvetica,sans-Serif" font-size="14.00">SimulatedLayersKeys</text>
</g>
<!-- LayerMap&#45;&gt;SimulatedLayersKeys -->
<g id="edge5" class="edge">
<title>LayerMap&#45;&gt;SimulatedLayersKeys</title>
<path fill="none" stroke="black" d="M453.94,-163.02C572.81,-157.94 938.12,-145.49 1050.82,-178.77 1128.55,-201.72 1206.15,-258.91 1246.99,-292.35"/>
<polygon fill="black" stroke="black" points="1244.51,-294.84 1254.44,-298.53 1248.98,-289.45 1244.51,-294.84"/>
<text xml:space="preserve" text-anchor="middle" x="748.19" y="-160.25" font-family="Times,serif" font-size="14.00">LSETBIT, LGETAOUT</text>
</g>
<!-- LayeredEnc0 -->
<g id="node7" class="node">
<title>LayeredEnc0</title>
<polygon fill="none" stroke="black" points="989.44,-93.77 893.94,-93.77 893.94,-57.77 989.44,-57.77 989.44,-93.77"/>
<text xml:space="preserve" text-anchor="middle" x="941.69" y="-69.97" font-family="Helvetica,sans-Serif" font-size="14.00">LayeredEnc0</text>
</g>
<!-- LayeredEnc0&#45;&gt;KeysBot -->
<g id="edge15" class="edge">
<title>LayeredEnc0&#45;&gt;KeysBot</title>
<path fill="none" stroke="black" d="M989.77,-75.9C1039.1,-76.84 1118.61,-80.62 1185.82,-94.27 1201.66,-97.48 1218.56,-102.67 1233.42,-107.85"/>
<polygon fill="black" stroke="black" points="1231.82,-111 1242.41,-111.09 1234.19,-104.41 1231.82,-111"/>
<text xml:space="preserve" text-anchor="middle" x="1127.32" y="-97.47" font-family="Times,serif" font-size="14.00">GETKEYSIN</text>
</g>
<!-- LayeredEnc0&#45;&gt;RealLayersKeys -->
<g id="edge14" class="edge">
<title>LayeredEnc0&#45;&gt;RealLayersKeys</title>
<path fill="none" stroke="black" d="M989.8,-67.86C1047.04,-58.26 1144.02,-41.99 1209.13,-31.06"/>
<polygon fill="black" stroke="black" points="1209.32,-34.58 1218.6,-29.47 1208.16,-27.68 1209.32,-34.58"/>
<text xml:space="preserve" text-anchor="middle" x="1127.32" y="-57.63" font-family="Times,serif" font-size="14.00">LGETKEYSIN</text>
</g>
<!-- LayeredGate&#45;&gt;LayeredEnc0 -->
<g id="edge12" class="edge">
<title>LayeredGate&#45;&gt;LayeredEnc0</title>
<path fill="none" stroke="black" d="M664.1,-75.77C721.71,-75.77 819.72,-75.77 882.27,-75.77"/>
<polygon fill="black" stroke="black" points="882.01,-79.27 892.01,-75.77 882.01,-72.27 882.01,-79.27"/>
<text xml:space="preserve" text-anchor="middle" x="748.19" y="-78.97" font-family="Times,serif" font-size="14.00">LENCN, LENCM</text>
</g>
<!-- LayeredGate&#45;&gt;RealLayersKeys -->
<g id="edge13" class="edge">
<title>LayeredGate&#45;&gt;RealLayersKeys</title>
<path fill="none" stroke="black" d="M664.07,-63.93C707.4,-53.51 773.89,-38.98 832.57,-32.27 965.06,-17.12 1121.17,-16.74 1208.48,-18.08"/>
<polygon fill="black" stroke="black" points="1208.25,-21.58 1218.3,-18.24 1208.36,-14.58 1208.25,-21.58"/>
<text xml:space="preserve" text-anchor="middle" x="941.69" y="-35.47" font-family="Times,serif" font-size="14.00">LGETKEYSOUT</text>
</g>
<!-- LayeredLev -->
<g id="node9" class="node">
<title>LayeredLev</title>
<polygon fill="none" stroke="black" points="984.94,-388.77 898.44,-388.77 898.44,-352.77 984.94,-352.77 984.94,-388.77"/>
<text xml:space="preserve" text-anchor="middle" x="941.69" y="-364.97" font-family="Helvetica,sans-Serif" font-size="14.00">LayeredLev</text>
</g>
<!-- LayeredLev&#45;&gt;KeysTop -->
<g id="edge20" class="edge">
<title>LayeredLev&#45;&gt;KeysTop</title>
<path fill="none" stroke="black" d="M985.37,-374.22C1033.97,-378.31 1115.74,-385.67 1185.82,-394.27 1200.89,-396.12 1217.33,-398.47 1232.01,-400.68"/>
<polygon fill="black" stroke="black" points="1231.44,-404.14 1241.86,-402.19 1232.5,-397.22 1231.44,-404.14"/>
<text xml:space="preserve" text-anchor="middle" x="1127.32" y="-397.47" font-family="Times,serif" font-size="14.00">SETBIT</text>
</g>
<!-- LayeredLev&#45;&gt;SimulatedLayersKeys -->
<g id="edge19" class="edge">
<title>LayeredLev&#45;&gt;SimulatedLayersKeys</title>
<path fill="none" stroke="black" d="M985.3,-364C1037.3,-355.74 1126.43,-341.59 1192.41,-331.11"/>
<polygon fill="black" stroke="black" points="1192.79,-334.6 1202.12,-329.57 1191.69,-327.68 1192.79,-334.6"/>
<text xml:space="preserve" text-anchor="middle" x="1127.32" y="-353.77" font-family="Times,serif" font-size="14.00">LGETBIT, LSETBIT</text>
</g>
<!-- LayeredSim&#45;&gt;KeysTop -->
<g id="edge18" class="edge">
<title>LayeredSim&#45;&gt;KeysTop</title>
<path fill="none" stroke="black" d="M642.21,-358.13C653.69,-365.74 667.87,-373.91 681.82,-378.77 844.81,-435.51 896.29,-406.02 1068.82,-410.77 1120.8,-412.2 1133.82,-411.63 1185.82,-410.77 1200.84,-410.52 1217.27,-410.04 1231.96,-409.53"/>
<polygon fill="black" stroke="black" points="1231.92,-413.04 1241.79,-409.18 1231.67,-406.04 1231.92,-413.04"/>
<text xml:space="preserve" text-anchor="middle" x="941.69" y="-417.48" font-family="Times,serif" font-size="14.00">GETAOUT</text>
</g>
<!-- LayeredSim&#45;&gt;LayeredLev -->
<g id="edge16" class="edge">
<title>LayeredSim&#45;&gt;LayeredLev</title>
<path fill="none" stroke="black" d="M661.04,-343.95C719.52,-349.56 823.34,-359.51 886.7,-365.59"/>
<polygon fill="black" stroke="black" points="886.25,-369.06 896.54,-366.53 886.92,-362.09 886.25,-369.06"/>
<text xml:space="preserve" text-anchor="middle" x="748.19" y="-361.24" font-family="Times,serif" font-size="14.00">LEVAL</text>
</g>
<!-- LayeredSim&#45;&gt;SimulatedLayersKeys -->
<g id="edge17" class="edge">
<title>LayeredSim&#45;&gt;SimulatedLayersKeys</title>
<path fill="none" stroke="black" d="M661.09,-336.76C704.54,-333.88 773.13,-329.63 832.57,-327.27 957.63,-322.3 1102.63,-319.81 1191.95,-318.66"/>
<polygon fill="black" stroke="black" points="1191.9,-322.16 1201.86,-318.53 1191.81,-315.16 1191.9,-322.16"/>
<text xml:space="preserve" text-anchor="middle" x="941.69" y="-330.47" font-family="Times,serif" font-size="14.00">LGETAIN, LGETINAIN, LGETAOUT</text>
</g>
</g>
</svg>
