<?xml version="1.0" encoding="UTF-8" standalone="no"?>
<!DOCTYPE svg PUBLIC "-//W3C//DTD SVG 1.1//EN"
 "http://www.w3.org/Graphics/SVG/1.1/DTD/svg11.dtd">
<!-- Generated by graphviz version 14.0.1 (20251006.0113)
 -->
<!-- Title: LayerIdeal Pages: 1 -->
<svg width="694pt" height="169pt"
 viewBox="0.00 0.00 694.00 169.00" xmlns="http://www.w3.org/2000/svg" xmlns:xlink="http://www.w3.org/1999/xlink">
<g id="graph0" class="graph" transform="scale(1 1) rotate(0) translate(4 165.28)">
<title>LayerIdeal</title>
<polygon fill="white" stroke="none" points="-4,4 -4,-165.28 690.32,-165.28 690.32,4 -4,4"/>
<!-- adversary -->
<g id="node1" class="node">
<title>adversary</title>
<ellipse fill="#e6e6e6" stroke="black" cx="48.91" cy="-71.17" rx="48.91" ry="18"/>
<text xml:space="preserve" text-anchor="middle" x="48.91" y="-65.37" font-family="Helvetica,sans-Serif" font-size="14.00">adversary</text>
</g>
<!-- keys_bottom -->
<g id="node3" class="node">
<title>keys_bottom</title>
<polygon fill="none" stroke="black" points="686.32,-143.17 593.07,-143.17 593.07,-107.17 686.32,-107.17 686.32,-143.17"/>
<text xml:space="preserve" text-anchor="middle" x="639.69" y="-119.37" font-family="Helvetica,sans-Serif" font-size="14.00">keys_bottom</text>
</g>
<!-- adversary&#45;&gt;keys_bottom -->
<g id="edge3" class="edge">
<title>adversary&#45;&gt;keys_bottom</title>
<path fill="none" stroke="black" d="M85.61,-83.37C95.34,-86.47 105.93,-89.64 115.82,-92.17 286.66,-135.94 332.89,-153.17 509.07,-145.17 538.49,-143.84 545.96,-143.68 575.07,-139.17 577.11,-138.86 579.2,-138.51 581.3,-138.15"/>
<polygon fill="black" stroke="black" points="581.93,-141.59 591.11,-136.31 580.64,-134.71 581.93,-141.59"/>
<text xml:space="preserve" text-anchor="middle" x="310.69" y="-147.98" font-family="Times,serif" font-size="14.00">GETKEYSIN</text>
</g>
<!-- keys_top -->
<g id="node4" class="node">
<title>keys_top</title>
<polygon fill="none" stroke="black" points="674.69,-36.17 604.69,-36.17 604.69,-0.17 674.69,-0.17 674.69,-36.17"/>
<text xml:space="preserve" text-anchor="middle" x="639.69" y="-12.37" font-family="Helvetica,sans-Serif" font-size="14.00">keys_top</text>
</g>
<!-- adversary&#45;&gt;keys_top -->
<g id="edge1" class="edge">
<title>adversary&#45;&gt;keys_top</title>
<path fill="none" stroke="black" d="M82.92,-57.85C122.47,-42.68 191.1,-18.79 252.57,-9.67 374.45,8.41 520.32,-3.85 592.93,-12.21"/>
<polygon fill="black" stroke="black" points="592.51,-15.68 602.86,-13.38 593.34,-8.73 592.51,-15.68"/>
<text xml:space="preserve" text-anchor="middle" x="310.69" y="-12.87" font-family="Times,serif" font-size="14.00">GETAOUT, SETBIT</text>
</g>
<!-- simgate -->
<g id="node5" class="node">
<title>simgate</title>
<polygon fill="none" stroke="black" points="234.57,-89.17 170.57,-89.17 170.57,-53.17 234.57,-53.17 234.57,-89.17"/>
<text xml:space="preserve" text-anchor="middle" x="202.57" y="-65.37" font-family="Helvetica,sans-Serif" font-size="14.00">simgate</text>
</g>
<!-- adversary&#45;&gt;simgate -->
<g id="edge2" class="edge">
<title>adversary&#45;&gt;simgate</title>
<path fill="none" stroke="black" d="M98.31,-71.17C117.84,-71.17 140.17,-71.17 159.06,-71.17"/>
<polygon fill="black" stroke="black" points="158.8,-74.67 168.8,-71.17 158.8,-67.67 158.8,-74.67"/>
<text xml:space="preserve" text-anchor="middle" x="134.19" y="-74.37" font-family="Times,serif" font-size="14.00">GBLG</text>
</g>
<!-- ev -->
<g id="node2" class="node">
<title>ev</title>
<polygon fill="none" stroke="black" points="474.94,-89.17 420.94,-89.17 420.94,-53.17 474.94,-53.17 474.94,-89.17"/>
<text xml:space="preserve" text-anchor="middle" x="447.94" y="-65.37" font-family="Helvetica,sans-Serif" font-size="14.00">ev</text>
</g>
<!-- ev&#45;&gt;keys_bottom -->
<g id="edge8" class="edge">
<title>ev&#45;&gt;keys_bottom</title>
<path fill="none" stroke="black" d="M475.04,-74C500.9,-77.28 541.4,-83.68 575.07,-94.67 581.33,-96.72 587.78,-99.25 594.04,-101.98"/>
<polygon fill="black" stroke="black" points="592.44,-105.09 602.99,-106.07 595.35,-98.73 592.44,-105.09"/>
<text xml:space="preserve" text-anchor="middle" x="551.07" y="-97.87" font-family="Times,serif" font-size="14.00">SETBIT</text>
</g>
<!-- ev&#45;&gt;keys_top -->
<g id="edge7" class="edge">
<title>ev&#45;&gt;keys_top</title>
<path fill="none" stroke="black" d="M475.33,-63.8C505.87,-55.27 556.7,-41.07 593.56,-30.78"/>
<polygon fill="black" stroke="black" points="594.37,-34.19 603.06,-28.13 592.48,-27.45 594.37,-34.19"/>
<text xml:space="preserve" text-anchor="middle" x="551.07" y="-51.05" font-family="Times,serif" font-size="14.00">GETBIT</text>
</g>
<!-- simgate&#45;&gt;ev -->
<g id="edge5" class="edge">
<title>simgate&#45;&gt;ev</title>
<path fill="none" stroke="black" d="M234.89,-71.17C279.5,-71.17 361.26,-71.17 409.17,-71.17"/>
<polygon fill="black" stroke="black" points="409.07,-74.67 419.07,-71.17 409.07,-67.67 409.07,-74.67"/>
<text xml:space="preserve" text-anchor="middle" x="310.69" y="-74.37" font-family="Times,serif" font-size="14.00">EVAL</text>
</g>
<!-- simgate&#45;&gt;keys_bottom -->
<g id="edge6" class="edge">
<title>simgate&#45;&gt;keys_bottom</title>
<path fill="none" stroke="black" d="M234.95,-86.36C240.7,-88.64 246.73,-90.71 252.57,-92.17 366.8,-120.74 505.31,-125.67 581.51,-125.93"/>
<polygon fill="black" stroke="black" points="581.23,-129.43 591.23,-125.94 581.23,-122.43 581.23,-129.43"/>
<text xml:space="preserve" text-anchor="middle" x="447.94" y="-127.54" font-family="Times,serif" font-size="14.00">GETAOUT</text>
</g>
<!-- simgate&#45;&gt;keys_top -->
<g id="edge4" class="edge">
<title>simgate&#45;&gt;keys_top</title>
<path fill="none" stroke="black" d="M234.99,-61.73C271.21,-51.31 332.71,-35.04 386.82,-27.67 458.42,-17.92 542.45,-16.8 593.08,-17.23"/>
<polygon fill="black" stroke="black" points="592.73,-20.72 602.77,-17.34 592.81,-13.72 592.73,-20.72"/>
<text xml:space="preserve" text-anchor="middle" x="447.94" y="-30.87" font-family="Times,serif" font-size="14.00">GETAIN, GETINAIN</text>
</g>
</g>
</svg>
