<?xml version="1.0" encoding="UTF-8" standalone="no"?>
<!DOCTYPE svg PUBLIC "-//W3C//DTD SVG 1.1//EN"
 "http://www.w3.org/Graphics/SVG/1.1/DTD/svg11.dtd">
<!-- Generated by graphviz version 14.0.1 (20251006.0113)
 -->
<!-- Title: LayerReal Pages: 1 -->
<svg width="682pt" height="142pt"
 viewBox="0.00 0.00 682.00 142.00" xmlns="http://www.w3.org/2000/svg" xmlns:xlink="http://www.w3.org/1999/xlink">
<g id="graph0" class="graph" transform="scale(1 1) rotate(0) translate(4 138)">
<title>LayerReal</title>
<polygon fill="white" stroke="none" points="-4,4 -4,-138 677.57,-138 677.57,4 -4,4"/>
<!-- adversary -->
<g id="node1" class="node">
<title>adversary</title>
<ellipse fill="#e6e6e6" stroke="black" cx="48.91" cy="-48" rx="48.91" ry="18"/>
<text xml:space="preserve" text-anchor="middle" x="48.91" y="-42.2" font-family="Helvetica,sans-Serif" font-size="14.00">adversary</text>
</g>
<!-- gate -->
<g id="node3" class="node">
<title>gate</title>
<polygon fill="none" stroke="black" points="235.44,-119 181.44,-119 181.44,-83 235.44,-83 235.44,-119"/>
<text xml:space="preserve" text-anchor="middle" x="208.44" y="-95.2" font-family="Helvetica,sans-Serif" font-size="14.00">gate</text>
</g>
<!-- adversary&#45;&gt;gate -->
<g id="edge2" class="edge">
<title>adversary&#45;&gt;gate</title>
<path fill="none" stroke="black" d="M86.05,-60.16C111.37,-68.68 145.1,-80.03 170.58,-88.6"/>
<polygon fill="black" stroke="black" points="169.27,-91.85 179.86,-91.72 171.5,-85.21 169.27,-91.85"/>
<text xml:space="preserve" text-anchor="middle" x="134.19" y="-85.54" font-family="Times,serif" font-size="14.00">GBLG</text>
</g>
<!-- keys_bottom -->
<g id="node4" class="node">
<title>keys_bottom</title>
<polygon fill="none" stroke="black" points="491.82,-71 398.57,-71 398.57,-35 491.82,-35 491.82,-71"/>
<text xml:space="preserve" text-anchor="middle" x="445.19" y="-47.2" font-family="Helvetica,sans-Serif" font-size="14.00">keys_bottom</text>
</g>
<!-- adversary&#45;&gt;keys_bottom -->
<g id="edge3" class="edge">
<title>adversary&#45;&gt;keys_bottom</title>
<path fill="none" stroke="black" d="M98.26,-48.61C171.11,-49.54 308.8,-51.28 386.7,-52.27"/>
<polygon fill="black" stroke="black" points="386.65,-55.77 396.69,-52.4 386.73,-48.77 386.65,-55.77"/>
<text xml:space="preserve" text-anchor="middle" x="208.44" y="-53.62" font-family="Times,serif" font-size="14.00">GETKEYSIN</text>
</g>
<!-- keys_top -->
<g id="node5" class="node">
<title>keys_top</title>
<polygon fill="none" stroke="black" points="673.57,-36 603.57,-36 603.57,0 673.57,0 673.57,-36"/>
<text xml:space="preserve" text-anchor="middle" x="638.57" y="-12.2" font-family="Helvetica,sans-Serif" font-size="14.00">keys_top</text>
</g>
<!-- adversary&#45;&gt;keys_top -->
<g id="edge1" class="edge">
<title>adversary&#45;&gt;keys_top</title>
<path fill="none" stroke="black" d="M96.71,-43.53C140.11,-39.54 206.52,-33.83 264.32,-30.5 382.5,-23.7 521.97,-20.24 592.24,-18.82"/>
<polygon fill="black" stroke="black" points="591.88,-22.32 601.81,-18.63 591.74,-15.33 591.88,-22.32"/>
<text xml:space="preserve" text-anchor="middle" x="322.44" y="-33.7" font-family="Times,serif" font-size="14.00">GETAOUT, SETBIT</text>
</g>
<!-- enc -->
<g id="node2" class="node">
<title>enc</title>
<polygon fill="none" stroke="black" points="472.19,-134 418.19,-134 418.19,-98 472.19,-98 472.19,-134"/>
<text xml:space="preserve" text-anchor="middle" x="445.19" y="-110.2" font-family="Helvetica,sans-Serif" font-size="14.00">enc</text>
</g>
<!-- enc&#45;&gt;keys_top -->
<g id="edge6" class="edge">
<title>enc&#45;&gt;keys_top</title>
<path fill="none" stroke="black" d="M472.4,-102.58C503.47,-86.67 555.73,-59.91 593.15,-40.75"/>
<polygon fill="black" stroke="black" points="594.63,-43.92 601.93,-36.25 591.44,-37.69 594.63,-43.92"/>
<text xml:space="preserve" text-anchor="middle" x="547.69" y="-84.7" font-family="Times,serif" font-size="14.00">GETKEYSIN</text>
</g>
<!-- gate&#45;&gt;enc -->
<g id="edge4" class="edge">
<title>gate&#45;&gt;enc</title>
<path fill="none" stroke="black" d="M235.91,-102.69C277.59,-105.35 358.65,-110.53 406.43,-113.59"/>
<polygon fill="black" stroke="black" points="406.1,-117.07 416.31,-114.22 406.55,-110.09 406.1,-117.07"/>
<text xml:space="preserve" text-anchor="middle" x="322.44" y="-114.77" font-family="Times,serif" font-size="14.00">ENCN, ENCM</text>
</g>
<!-- gate&#45;&gt;keys_bottom -->
<g id="edge5" class="edge">
<title>gate&#45;&gt;keys_bottom</title>
<path fill="none" stroke="black" d="M235.79,-92.39C244.77,-89.63 254.93,-86.73 264.32,-84.5 305.1,-74.83 351.72,-66.75 387.29,-61.19"/>
<polygon fill="black" stroke="black" points="387.57,-64.69 396.93,-59.71 386.51,-57.77 387.57,-64.69"/>
<text xml:space="preserve" text-anchor="middle" x="322.44" y="-87.7" font-family="Times,serif" font-size="14.00">GETKEYSOUT</text>
</g>
</g>
</svg>
