<?xml version="1.0" encoding="UTF-8" standalone="no"?>
<!DOCTYPE svg PUBLIC "-//W3C//DTD SVG 1.1//EN"
 "http://www.w3.org/Graphics/SVG/1.1/DTD/svg11.dtd">
<!-- Generated by graphviz version 14.0.1 (20251006.0113)
 -->
<!-- Title: YaoIdeal Pages: 1 -->
<svg width="1553pt" height="143pt"
 viewBox="0.00 0.00 1553.00 143.00" xmlns="http://www.w3.org/2000/svg" xmlns:xlink="http://www.w3.org/1999/xlink">
<g id="graph0" class="graph" transform="scale(1 1) rotate(0) translate(4 139)">
<title>YaoIdeal</title>
<polygon fill="white" stroke="none" points="-4,4 -4,-139 1549.07,-139 1549.07,4 -4,4"/>
<!-- adversary -->
<g id="node1" class="node">
<title>adversary</title>
<ellipse fill="#e6e6e6" stroke="black" cx="48.91" cy="-94" rx="48.91" ry="18"/>
<text xml:space="preserve" text-anchor="middle" x="48.91" y="-88.2" font-family="Helvetica,sans-Serif" font-size="14.00">adversary</text>
</g>
<!-- Mod -->
<g id="node6" class="node">
<title>Mod</title>
<polygon fill="none" stroke="black" points="241.82,-112 187.82,-112 187.82,-76 241.82,-76 241.82,-112"/>
<text xml:space="preserve" text-anchor="middle" x="214.82" y="-88.2" font-family="Helvetica,sans-Serif" font-size="14.00">Mod</text>
</g>
<!-- adversary&#45;&gt;Mod -->
<g id="edge1" class="edge">
<title>adversary&#45;&gt;Mod</title>
<path fill="none" stroke="black" d="M98.2,-94C123.13,-94 153.09,-94 176.26,-94"/>
<polygon fill="black" stroke="black" points="176.18,-97.5 186.18,-94 176.18,-90.5 176.18,-97.5"/>
<text xml:space="preserve" text-anchor="middle" x="142.82" y="-97.2" font-family="Times,serif" font-size="14.00">GARBLE</text>
</g>
<!-- Keys -->
<g id="node2" class="node">
<title>Keys</title>
<polygon fill="none" stroke="black" points="1545.07,-90 1491.07,-90 1491.07,-54 1545.07,-54 1545.07,-90"/>
<text xml:space="preserve" text-anchor="middle" x="1518.07" y="-66.2" font-family="Helvetica,sans-Serif" font-size="14.00">Keys</text>
</g>
<!-- LayerMap -->
<g id="node3" class="node">
<title>LayerMap</title>
<polygon fill="none" stroke="black" points="640.57,-135 563.82,-135 563.82,-99 640.57,-99 640.57,-135"/>
<text xml:space="preserve" text-anchor="middle" x="602.19" y="-111.2" font-family="Helvetica,sans-Serif" font-size="14.00">LayerMap</text>
</g>
<!-- LayerMap&#45;&gt;Keys -->
<g id="edge6" class="edge">
<title>LayerMap&#45;&gt;Keys</title>
<path fill="none" stroke="black" d="M640.99,-117C673.66,-117 722.17,-117 764.44,-117 764.44,-117 764.44,-117 1230.32,-117 1339.2,-117 1366.37,-105.7 1473.07,-84 1475.22,-83.56 1477.42,-83.08 1479.64,-82.56"/>
<polygon fill="black" stroke="black" points="1480.36,-85.99 1489.21,-80.17 1478.66,-79.2 1480.36,-85.99"/>
<text xml:space="preserve" text-anchor="middle" x="930.07" y="-120.2" font-family="Times,serif" font-size="14.00">LSETBIT, LGETAOUT, LGETKEYSIN</text>
</g>
<!-- Lev -->
<g id="node4" class="node">
<title>Lev</title>
<polygon fill="none" stroke="black" points="1256.32,-36 1202.32,-36 1202.32,0 1256.32,0 1256.32,-36"/>
<text xml:space="preserve" text-anchor="middle" x="1229.32" y="-12.2" font-family="Helvetica,sans-Serif" font-size="14.00">Lev</text>
</g>
<!-- Lev&#45;&gt;Keys -->
<g id="edge9" class="edge">
<title>Lev&#45;&gt;Keys</title>
<path fill="none" stroke="black" d="M1256.78,-16.29C1302.44,-14.27 1398.33,-14.11 1473.07,-41.5 1477.48,-43.12 1481.88,-45.29 1486.08,-47.73"/>
<polygon fill="black" stroke="black" points="1483.89,-50.49 1494.19,-52.97 1487.69,-44.61 1483.89,-50.49"/>
<text xml:space="preserve" text-anchor="middle" x="1414.57" y="-44.7" font-family="Times,serif" font-size="14.00">LGETBIT, LSETBIT</text>
</g>
<!-- MODGB -->
<g id="node5" class="node">
<title>MODGB</title>
<polygon fill="none" stroke="black" points="545.82,-89 476.57,-89 476.57,-53 545.82,-53 545.82,-89"/>
<text xml:space="preserve" text-anchor="middle" x="511.19" y="-65.2" font-family="Helvetica,sans-Serif" font-size="14.00">MODGB</text>
</g>
<!-- Proxy -->
<g id="node7" class="node">
<title>Proxy</title>
<polygon fill="none" stroke="black" points="712.57,-83 658.57,-83 658.57,-47 712.57,-47 712.57,-83"/>
<text xml:space="preserve" text-anchor="middle" x="685.57" y="-59.2" font-family="Helvetica,sans-Serif" font-size="14.00">Proxy</text>
</g>
<!-- MODGB&#45;&gt;Proxy -->
<g id="edge4" class="edge">
<title>MODGB&#45;&gt;Proxy</title>
<path fill="none" stroke="black" d="M546.25,-69.81C575.26,-68.8 616.91,-67.35 646.91,-66.31"/>
<polygon fill="black" stroke="black" points="646.8,-69.82 656.68,-65.97 646.56,-62.82 646.8,-69.82"/>
<text xml:space="preserve" text-anchor="middle" x="602.19" y="-72.26" font-family="Times,serif" font-size="14.00">GBLG</text>
</g>
<!-- Mod&#45;&gt;LayerMap -->
<g id="edge2" class="edge">
<title>Mod&#45;&gt;LayerMap</title>
<path fill="none" stroke="black" d="M242.3,-95.58C306.23,-99.4 469.75,-109.16 552.16,-114.07"/>
<polygon fill="black" stroke="black" points="551.77,-117.56 561.96,-114.66 552.18,-110.57 551.77,-117.56"/>
<text xml:space="preserve" text-anchor="middle" x="359.19" y="-111.63" font-family="Times,serif" font-size="14.00">GETAOUT, SETBIT, GETKEYSIN</text>
</g>
<!-- Mod&#45;&gt;MODGB -->
<g id="edge3" class="edge">
<title>Mod&#45;&gt;MODGB</title>
<path fill="none" stroke="black" d="M241.98,-83.3C247.76,-81.36 253.92,-79.6 259.82,-78.5 330.46,-65.33 414.23,-66.04 464.74,-68.19"/>
<polygon fill="black" stroke="black" points="464.56,-71.69 474.71,-68.66 464.89,-64.7 464.56,-71.69"/>
<text xml:space="preserve" text-anchor="middle" x="359.19" y="-81.7" font-family="Times,serif" font-size="14.00">GBL</text>
</g>
<!-- Sim -->
<g id="node8" class="node">
<title>Sim</title>
<polygon fill="none" stroke="black" points="957.07,-81 903.07,-81 903.07,-45 957.07,-45 957.07,-81"/>
<text xml:space="preserve" text-anchor="middle" x="930.07" y="-57.2" font-family="Helvetica,sans-Serif" font-size="14.00">Sim</text>
</g>
<!-- Proxy&#45;&gt;Sim -->
<g id="edge5" class="edge">
<title>Proxy&#45;&gt;Sim</title>
<path fill="none" stroke="black" d="M712.98,-64.78C756.07,-64.43 841.66,-63.72 891.21,-63.31"/>
<polygon fill="black" stroke="black" points="891.2,-66.81 901.17,-63.23 891.14,-59.81 891.2,-66.81"/>
<text xml:space="preserve" text-anchor="middle" x="765.44" y="-67.82" font-family="Times,serif" font-size="14.00">LSIMGBLG</text>
</g>
<!-- Sim&#45;&gt;Keys -->
<g id="edge7" class="edge">
<title>Sim&#45;&gt;Keys</title>
<path fill="none" stroke="black" d="M957.38,-63.4C1051.19,-64.84 1369.44,-69.73 1479.36,-71.42"/>
<polygon fill="black" stroke="black" points="1479.26,-74.92 1489.31,-71.57 1479.36,-67.92 1479.26,-74.92"/>
<text xml:space="preserve" text-anchor="middle" x="1229.32" y="-72.32" font-family="Times,serif" font-size="14.00">LGETAOUT, LGETAIN, LGETINAIN</text>
</g>
<!-- Sim&#45;&gt;Lev -->
<g id="edge8" class="edge">
<title>Sim&#45;&gt;Lev</title>
<path fill="none" stroke="black" d="M957.17,-58.43C983.16,-53.93 1024.2,-46.96 1059.82,-41.5 1104.74,-34.62 1156.53,-27.52 1190.7,-22.95"/>
<polygon fill="black" stroke="black" points="1191.07,-26.43 1200.52,-21.64 1190.14,-19.5 1191.07,-26.43"/>
<text xml:space="preserve" text-anchor="middle" x="1081.19" y="-44.7" font-family="Times,serif" font-size="14.00">LEVAL</text>
</g>
</g>
</svg>
