<?xml version="1.0" encoding="UTF-8" standalone="no"?>
<!DOCTYPE svg PUBLIC "-//W3C//DTD SVG 1.1//EN"
 "http://www.w3.org/Graphics/SVG/1.1/DTD/svg11.dtd">
<!-- Generated by graphviz version 14.0.1 (20251006.0113)
 -->
<!-- Title: YaoReal Pages: 1 -->
<svg width="1468pt" height="121pt"
 viewBox="0.00 0.00 1468.00 121.00" xmlns="http://www.w3.org/2000/svg" xmlns:xlink="http://www.w3.org/1999/xlink">
<g id="graph0" class="graph" transform="scale(1 1) rotate(0) translate(4 116.76)">
<title>YaoReal</title>
<polygon fill="white" stroke="none" points="-4,4 -4,-116.76 1463.57,-116.76 1463.57,4 -4,4"/>
<!-- adversary -->
<g id="node1" class="node">
<title>adversary</title>
<ellipse fill="#e6e6e6" stroke="black" cx="48.91" cy="-71.76" rx="48.91" ry="18"/>
<text xml:space="preserve" text-anchor="middle" x="48.91" y="-65.96" font-family="Helvetica,sans-Serif" font-size="14.00">adversary</text>
</g>
<!-- Mod -->
<g id="node7" class="node">
<title>Mod</title>
<polygon fill="none" stroke="black" points="241.82,-89.76 187.82,-89.76 187.82,-53.76 241.82,-53.76 241.82,-89.76"/>
<text xml:space="preserve" text-anchor="middle" x="214.82" y="-65.96" font-family="Helvetica,sans-Serif" font-size="14.00">Mod</text>
</g>
<!-- adversary&#45;&gt;Mod -->
<g id="edge1" class="edge">
<title>adversary&#45;&gt;Mod</title>
<path fill="none" stroke="black" d="M98.2,-71.76C123.13,-71.76 153.09,-71.76 176.26,-71.76"/>
<polygon fill="black" stroke="black" points="176.18,-75.26 186.18,-71.76 176.18,-68.26 176.18,-75.26"/>
<text xml:space="preserve" text-anchor="middle" x="142.82" y="-74.96" font-family="Times,serif" font-size="14.00">GARBLE</text>
</g>
<!-- Enc -->
<g id="node2" class="node">
<title>Enc</title>
<polygon fill="none" stroke="black" points="1263.82,-66.76 1209.82,-66.76 1209.82,-30.76 1263.82,-30.76 1263.82,-66.76"/>
<text xml:space="preserve" text-anchor="middle" x="1236.82" y="-42.96" font-family="Helvetica,sans-Serif" font-size="14.00">Enc</text>
</g>
<!-- Keys -->
<g id="node4" class="node">
<title>Keys</title>
<polygon fill="none" stroke="black" points="1459.57,-66.76 1405.57,-66.76 1405.57,-30.76 1459.57,-30.76 1459.57,-66.76"/>
<text xml:space="preserve" text-anchor="middle" x="1432.57" y="-42.96" font-family="Helvetica,sans-Serif" font-size="14.00">Keys</text>
</g>
<!-- Enc&#45;&gt;Keys -->
<g id="edge9" class="edge">
<title>Enc&#45;&gt;Keys</title>
<path fill="none" stroke="black" d="M1263.95,-48.76C1297.46,-48.76 1355.8,-48.76 1394.06,-48.76"/>
<polygon fill="black" stroke="black" points="1393.72,-52.26 1403.72,-48.76 1393.72,-45.26 1393.72,-52.26"/>
<text xml:space="preserve" text-anchor="middle" x="1345.57" y="-51.96" font-family="Times,serif" font-size="14.00">LGETKEYSIN</text>
</g>
<!-- Gate -->
<g id="node3" class="node">
<title>Gate</title>
<polygon fill="none" stroke="black" points="966.82,-58.76 912.82,-58.76 912.82,-22.76 966.82,-22.76 966.82,-58.76"/>
<text xml:space="preserve" text-anchor="middle" x="939.82" y="-34.96" font-family="Helvetica,sans-Serif" font-size="14.00">Gate</text>
</g>
<!-- Gate&#45;&gt;Enc -->
<g id="edge7" class="edge">
<title>Gate&#45;&gt;Enc</title>
<path fill="none" stroke="black" d="M967.26,-41.48C1019.76,-42.9 1137.32,-46.09 1197.99,-47.74"/>
<polygon fill="black" stroke="black" points="1197.73,-51.23 1207.82,-48 1197.92,-44.23 1197.73,-51.23"/>
<text xml:space="preserve" text-anchor="middle" x="1119.82" y="-50.03" font-family="Times,serif" font-size="14.00">LENCN, LENCM</text>
</g>
<!-- Gate&#45;&gt;Keys -->
<g id="edge8" class="edge">
<title>Gate&#45;&gt;Keys</title>
<path fill="none" stroke="black" d="M967.29,-33.59C1025.2,-18.87 1167.38,11.97 1285.57,-5.26 1323.63,-10.81 1365.56,-24.09 1394.68,-34.53"/>
<polygon fill="black" stroke="black" points="1393.17,-37.7 1403.76,-37.85 1395.57,-31.13 1393.17,-37.7"/>
<text xml:space="preserve" text-anchor="middle" x="1236.82" y="-8.46" font-family="Times,serif" font-size="14.00">LGETKEYSOUT</text>
</g>
<!-- LayerMap -->
<g id="node5" class="node">
<title>LayerMap</title>
<polygon fill="none" stroke="black" points="640.57,-112.76 563.82,-112.76 563.82,-76.76 640.57,-76.76 640.57,-112.76"/>
<text xml:space="preserve" text-anchor="middle" x="602.19" y="-88.96" font-family="Helvetica,sans-Serif" font-size="14.00">LayerMap</text>
</g>
<!-- LayerMap&#45;&gt;Keys -->
<g id="edge6" class="edge">
<title>LayerMap&#45;&gt;Keys</title>
<path fill="none" stroke="black" d="M640.8,-94.76C674.47,-94.76 725.19,-94.76 769.32,-94.76 769.32,-94.76 769.32,-94.76 1237.82,-94.76 1305.29,-94.76 1323.21,-90.05 1387.57,-69.76 1390.09,-68.97 1392.65,-68.06 1395.2,-67.06"/>
<polygon fill="black" stroke="black" points="1396.31,-70.4 1404.14,-63.25 1393.56,-63.96 1396.31,-70.4"/>
<text xml:space="preserve" text-anchor="middle" x="939.82" y="-97.96" font-family="Times,serif" font-size="14.00">LSETBIT, LGETAOUT, LGETKEYSIN</text>
</g>
<!-- MODGB -->
<g id="node6" class="node">
<title>MODGB</title>
<polygon fill="none" stroke="black" points="545.82,-66.76 476.57,-66.76 476.57,-30.76 545.82,-30.76 545.82,-66.76"/>
<text xml:space="preserve" text-anchor="middle" x="511.19" y="-42.96" font-family="Helvetica,sans-Serif" font-size="14.00">MODGB</text>
</g>
<!-- Proxy -->
<g id="node8" class="node">
<title>Proxy</title>
<polygon fill="none" stroke="black" points="712.57,-60.76 658.57,-60.76 658.57,-24.76 712.57,-24.76 712.57,-60.76"/>
<text xml:space="preserve" text-anchor="middle" x="685.57" y="-36.96" font-family="Helvetica,sans-Serif" font-size="14.00">Proxy</text>
</g>
<!-- MODGB&#45;&gt;Proxy -->
<g id="edge4" class="edge">
<title>MODGB&#45;&gt;Proxy</title>
<path fill="none" stroke="black" d="M546.25,-47.58C575.26,-46.57 616.91,-45.12 646.91,-44.07"/>
<polygon fill="black" stroke="black" points="646.8,-47.58 656.68,-43.73 646.56,-40.58 646.8,-47.58"/>
<text xml:space="preserve" text-anchor="middle" x="602.19" y="-50.02" font-family="Times,serif" font-size="14.00">GBLG</text>
</g>
<!-- Mod&#45;&gt;LayerMap -->
<g id="edge2" class="edge">
<title>Mod&#45;&gt;LayerMap</title>
<path fill="none" stroke="black" d="M242.3,-73.34C306.23,-77.16 469.75,-86.92 552.16,-91.84"/>
<polygon fill="black" stroke="black" points="551.77,-95.32 561.96,-92.42 552.18,-88.33 551.77,-95.32"/>
<text xml:space="preserve" text-anchor="middle" x="359.19" y="-89.39" font-family="Times,serif" font-size="14.00">GETAOUT, SETBIT, GETKEYSIN</text>
</g>
<!-- Mod&#45;&gt;MODGB -->
<g id="edge3" class="edge">
<title>Mod&#45;&gt;MODGB</title>
<path fill="none" stroke="black" d="M241.98,-61.07C247.76,-59.12 253.92,-57.36 259.82,-56.26 330.46,-43.09 414.23,-43.8 464.74,-45.96"/>
<polygon fill="black" stroke="black" points="464.56,-49.45 474.71,-46.43 464.89,-42.46 464.56,-49.45"/>
<text xml:space="preserve" text-anchor="middle" x="359.19" y="-59.46" font-family="Times,serif" font-size="14.00">GBL</text>
</g>
<!-- Proxy&#45;&gt;Gate -->
<g id="edge5" class="edge">
<title>Proxy&#45;&gt;Gate</title>
<path fill="none" stroke="black" d="M712.61,-42.56C757.46,-42.2 849.41,-41.47 901.2,-41.06"/>
<polygon fill="black" stroke="black" points="901.05,-44.56 911.02,-40.98 900.99,-37.56 901.05,-44.56"/>
<text xml:space="preserve" text-anchor="middle" x="770.32" y="-45.58" font-family="Times,serif" font-size="14.00">LGATEGBLG</text>
</g>
</g>
</svg>
