<?xml version="1.0" encoding="UTF-8" standalone="no"?>
<!DOCTYPE svg PUBLIC "-//W3C//DTD SVG 1.1//EN"
 "http://www.w3.org/Graphics/SVG/1.1/DTD/svg11.dtd">
<!-- Generated by graphviz version 14.0.1 (20251006.0113)
 -->
<!-- Title: HybridIdeal Pages: 1 -->
<svg width="1359pt" height="604pt"
 viewBox="0.00 0.00 1359.00 604.00" xmlns="http://www.w3.org/2000/svg" xmlns:xlink="http://www.w3.org/1999/xlink">
<g id="graph0" class="graph" transform="scale(1 1) rotate(0) translate(4 600.08)">
<title>HybridIdeal</title>
<polygon fill="white" stroke="none" points="-4,4 -4,-600.08 1355.07,-600.08 1355.07,4 -4,4"/>
<!-- adversary -->
<g id="node1" class="node">
<title>adversary</title>
<ellipse fill="#e6e6e6" stroke="black" cx="48.91" cy="-302.51" rx="48.91" ry="18"/>
<text xml:space="preserve" text-anchor="middle" x="48.91" y="-296.71" font-family="Helvetica,sans-Serif" font-size="14.00">adversary</text>
</g>
<!-- LayerMap -->
<g id="node4" class="node">
<title>LayerMap</title>
<polygon fill="none" stroke="black" points="453.57,-320.51 376.82,-320.51 376.82,-284.51 453.57,-284.51 453.57,-320.51"/>
<text xml:space="preserve" text-anchor="middle" x="415.19" y="-296.71" font-family="Helvetica,sans-Serif" font-size="14.00">LayerMap</text>
</g>
<!-- adversary&#45;&gt;LayerMap -->
<g id="edge1" class="edge">
<title>adversary&#45;&gt;LayerMap</title>
<path fill="none" stroke="black" d="M98.28,-302.51C167.86,-302.51 295.47,-302.51 365.32,-302.51"/>
<polygon fill="black" stroke="black" points="364.91,-306.01 374.91,-302.51 364.91,-299.01 364.91,-306.01"/>
<text xml:space="preserve" text-anchor="middle" x="237.32" y="-305.71" font-family="Times,serif" font-size="14.00">GETAOUT, SETBIT, GBLG, GETKEYSIN</text>
</g>
<!-- KeysBot -->
<g id="node2" class="node">
<title>KeysBot</title>
<polygon fill="none" stroke="black" points="1310.57,-395.51 1244.32,-395.51 1244.32,-359.51 1310.57,-359.51 1310.57,-395.51"/>
<text xml:space="preserve" text-anchor="middle" x="1277.44" y="-371.71" font-family="Helvetica,sans-Serif" font-size="14.00">KeysBot</text>
</g>
<!-- KeysTop -->
<g id="node3" class="node">
<title>KeysTop</title>
<polygon fill="none" stroke="black" points="1311.32,-221.51 1243.57,-221.51 1243.57,-185.51 1311.32,-185.51 1311.32,-221.51"/>
<text xml:space="preserve" text-anchor="middle" x="1277.44" y="-197.71" font-family="Helvetica,sans-Serif" font-size="14.00">KeysTop</text>
</g>
<!-- LayerMap&#45;&gt;KeysBot -->
<g id="edge3" class="edge">
<title>LayerMap&#45;&gt;KeysBot</title>
<path fill="none" stroke="black" d="M454.01,-317.92C459.83,-319.98 465.82,-321.93 471.57,-323.51 628.65,-366.81 670.25,-373.24 832.57,-387.51 929.19,-396.01 953.82,-388.23 1050.82,-387.51 1110.82,-387.07 1125.89,-388.6 1185.82,-385.51 1201.28,-384.72 1218.18,-383.36 1233.16,-381.98"/>
<polygon fill="black" stroke="black" points="1233.05,-385.51 1242.68,-381.08 1232.39,-378.54 1233.05,-385.51"/>
<text xml:space="preserve" text-anchor="middle" x="748.19" y="-389.1" font-family="Times,serif" font-size="14.00">GETKEYSIN</text>
</g>
<!-- LayerMap&#45;&gt;KeysTop -->
<g id="edge2" class="edge">
<title>LayerMap&#45;&gt;KeysTop</title>
<path fill="none" stroke="black" d="M453.7,-292.21C504.85,-278.56 599.55,-254.73 681.82,-242.01 885.67,-210.51 1132.7,-204.72 1231.98,-203.71"/>
<polygon fill="black" stroke="black" points="1231.86,-207.21 1241.83,-203.62 1231.8,-200.21 1231.86,-207.21"/>
<text xml:space="preserve" text-anchor="middle" x="748.19" y="-245.21" font-family="Times,serif" font-size="14.00">SETBIT, GETAOUT</text>
</g>
<!-- LayeredGate -->
<g id="node6" class="node">
<title>LayeredGate</title>
<polygon fill="none" stroke="black" points="663.82,-467.51 569.07,-467.51 569.07,-431.51 663.82,-431.51 663.82,-467.51"/>
<text xml:space="preserve" text-anchor="middle" x="616.44" y="-443.71" font-family="Helvetica,sans-Serif" font-size="14.00">LayeredGate</text>
</g>
<!-- LayerMap&#45;&gt;LayeredGate -->
<g id="edge7" class="edge">
<title>LayerMap&#45;&gt;LayeredGate</title>
<path fill="none" stroke="black" d="M420.02,-320.84C426.27,-346.1 441.17,-391.25 471.57,-415.51 495.83,-434.88 529.28,-443.53 557.82,-447.28"/>
<polygon fill="black" stroke="black" points="557.06,-450.71 567.39,-448.35 557.84,-443.76 557.06,-450.71"/>
<text xml:space="preserve" text-anchor="middle" x="511.32" y="-449.04" font-family="Times,serif" font-size="14.00">LGATEGBLG</text>
</g>
<!-- LayeredSim -->
<g id="node8" class="node">
<title>LayeredSim</title>
<polygon fill="none" stroke="black" points="660.82,-149.51 572.07,-149.51 572.07,-113.51 660.82,-113.51 660.82,-149.51"/>
<text xml:space="preserve" text-anchor="middle" x="616.44" y="-125.71" font-family="Helvetica,sans-Serif" font-size="14.00">LayeredSim</text>
</g>
<!-- LayerMap&#45;&gt;LayeredSim -->
<g id="edge6" class="edge">
<title>LayerMap&#45;&gt;LayeredSim</title>
<path fill="none" stroke="black" d="M418.95,-284.16C424.15,-256.09 438.04,-202.65 471.57,-173.01 495.99,-151.43 530.99,-141.04 560.36,-136.04"/>
<polygon fill="black" stroke="black" points="560.85,-139.51 570.22,-134.56 559.81,-132.59 560.85,-139.51"/>
<text xml:space="preserve" text-anchor="middle" x="511.32" y="-176.21" font-family="Times,serif" font-size="14.00">LSIMGBLG</text>
</g>
<!-- RealLayersKeys -->
<g id="node10" class="node">
<title>RealLayersKeys</title>
<polygon fill="none" stroke="black" points="1334.57,-522.51 1220.32,-522.51 1220.32,-486.51 1334.57,-486.51 1334.57,-522.51"/>
<text xml:space="preserve" text-anchor="middle" x="1277.44" y="-498.71" font-family="Helvetica,sans-Serif" font-size="14.00">RealLayersKeys</text>
</g>
<!-- LayerMap&#45;&gt;RealLayersKeys -->
<g id="edge8" class="edge">
<title>LayerMap&#45;&gt;RealLayersKeys</title>
<path fill="none" stroke="black" d="M416.58,-320.87C418.37,-355.22 427.45,-429.09 471.57,-466.51 685.16,-647.74 1057.05,-568.71 1208.92,-525.68"/>
<polygon fill="black" stroke="black" points="1209.8,-529.07 1218.45,-522.94 1207.87,-522.34 1209.8,-529.07"/>
<text xml:space="preserve" text-anchor="middle" x="748.19" y="-582.78" font-family="Times,serif" font-size="14.00">LGETKEYSIN</text>
</g>
<!-- Sim -->
<g id="node11" class="node">
<title>Sim</title>
<polygon fill="none" stroke="black" points="643.44,-320.51 589.44,-320.51 589.44,-284.51 643.44,-284.51 643.44,-320.51"/>
<text xml:space="preserve" text-anchor="middle" x="616.44" y="-296.71" font-family="Helvetica,sans-Serif" font-size="14.00">Sim</text>
</g>
<!-- LayerMap&#45;&gt;Sim -->
<g id="edge4" class="edge">
<title>LayerMap&#45;&gt;Sim</title>
<path fill="none" stroke="black" d="M453.67,-302.51C489.12,-302.51 542.04,-302.51 577.61,-302.51"/>
<polygon fill="black" stroke="black" points="577.44,-306.01 587.44,-302.51 577.44,-299.01 577.44,-306.01"/>
<text xml:space="preserve" text-anchor="middle" x="511.32" y="-305.71" font-family="Times,serif" font-size="14.00">GBLG</text>
</g>
<!-- SimulatedLayersKeys -->
<g id="node12" class="node">
<title>SimulatedLayersKeys</title>
<polygon fill="none" stroke="black" points="1351.07,-51.51 1203.82,-51.51 1203.82,-15.51 1351.07,-15.51 1351.07,-51.51"/>
<text xml:space="preserve" text-anchor="middle" x="1277.44" y="-27.71" font-family="Helvetica,sans-Serif" font-size="14.00">SimulatedLayersKeys</text>
</g>
<!-- LayerMap&#45;&gt;SimulatedLayersKeys -->
<g id="edge5" class="edge">
<title>LayerMap&#45;&gt;SimulatedLayersKeys</title>
<path fill="none" stroke="black" d="M417.71,-284.14C421.36,-250.65 433.41,-179.06 471.57,-134.51 539.84,-54.81 579.99,-52.43 681.82,-27.01 859.21,17.27 1075.75,-2.83 1192.37,-19.42"/>
<polygon fill="black" stroke="black" points="1191.78,-22.88 1202.18,-20.85 1192.79,-15.95 1191.78,-22.88"/>
<text xml:space="preserve" text-anchor="middle" x="748.19" y="-30.21" font-family="Times,serif" font-size="14.00">LSETBIT, LGETAOUT</text>
</g>
<!-- LayeredEnc0 -->
<g id="node5" class="node">
<title>LayeredEnc0</title>
<polygon fill="none" stroke="black" points="989.44,-467.51 893.94,-467.51 893.94,-431.51 989.44,-431.51 989.44,-467.51"/>
<text xml:space="preserve" text-anchor="middle" x="941.69" y="-443.71" font-family="Helvetica,sans-Serif" font-size="14.00">LayeredEnc0</text>
</g>
<!-- LayeredEnc0&#45;&gt;KeysBot -->
<g id="edge17" class="edge">
<title>LayeredEnc0&#45;&gt;KeysBot</title>
<path fill="none" stroke="black" d="M989.85,-444.64C1039.23,-438.92 1118.79,-427.92 1185.82,-410.51 1201.73,-406.38 1218.76,-400.56 1233.72,-394.96"/>
<polygon fill="black" stroke="black" points="1234.7,-398.34 1242.78,-391.49 1232.19,-391.8 1234.7,-398.34"/>
<text xml:space="preserve" text-anchor="middle" x="1127.32" y="-436.4" font-family="Times,serif" font-size="14.00">GETKEYSIN</text>
</g>
<!-- LayeredEnc0&#45;&gt;RealLayersKeys -->
<g id="edge16" class="edge">
<title>LayeredEnc0&#45;&gt;RealLayersKeys</title>
<path fill="none" stroke="black" d="M989.79,-451.13C1039.12,-453.56 1118.64,-459.52 1185.82,-474.01 1196.29,-476.27 1207.25,-479.34 1217.78,-482.65"/>
<polygon fill="black" stroke="black" points="1216.53,-485.92 1227.12,-485.7 1218.7,-479.27 1216.53,-485.92"/>
<text xml:space="preserve" text-anchor="middle" x="1127.32" y="-477.21" font-family="Times,serif" font-size="14.00">LGETKEYSIN</text>
</g>
<!-- LayeredGate&#45;&gt;LayeredEnc0 -->
<g id="edge14" class="edge">
<title>LayeredGate&#45;&gt;LayeredEnc0</title>
<path fill="none" stroke="black" d="M664.1,-449.51C721.71,-449.51 819.72,-449.51 882.27,-449.51"/>
<polygon fill="black" stroke="black" points="882.01,-453.01 892.01,-449.51 882.01,-446.01 882.01,-453.01"/>
<text xml:space="preserve" text-anchor="middle" x="748.19" y="-452.71" font-family="Times,serif" font-size="14.00">LENCN, LENCM</text>
</g>
<!-- LayeredGate&#45;&gt;RealLayersKeys -->
<g id="edge15" class="edge">
<title>LayeredGate&#45;&gt;RealLayersKeys</title>
<path fill="none" stroke="black" d="M664.19,-466.31C670.06,-467.96 676.04,-469.42 681.82,-470.51 870.25,-506.01 1097.7,-507.92 1208.76,-506.28"/>
<polygon fill="black" stroke="black" points="1208.66,-509.78 1218.6,-506.12 1208.54,-502.78 1208.66,-509.78"/>
<text xml:space="preserve" text-anchor="middle" x="941.69" y="-508.31" font-family="Times,serif" font-size="14.00">LGETKEYSOUT</text>
</g>
<!-- LayeredLev -->
<g id="node7" class="node">
<title>LayeredLev</title>
<polygon fill="none" stroke="black" points="984.94,-69.51 898.44,-69.51 898.44,-33.51 984.94,-33.51 984.94,-69.51"/>
<text xml:space="preserve" text-anchor="middle" x="941.69" y="-45.71" font-family="Helvetica,sans-Serif" font-size="14.00">LayeredLev</text>
</g>
<!-- LayeredLev&#45;&gt;KeysTop -->
<g id="edge22" class="edge">
<title>LayeredLev&#45;&gt;KeysTop</title>
<path fill="none" stroke="black" d="M985.19,-59.44C1035.41,-70.02 1120.42,-91.73 1185.82,-128.01 1209.82,-141.33 1233.54,-161.41 1250.69,-177.51"/>
<polygon fill="black" stroke="black" points="1247.81,-179.6 1257.45,-184 1252.66,-174.55 1247.81,-179.6"/>
<text xml:space="preserve" text-anchor="middle" x="1127.32" y="-131.21" font-family="Times,serif" font-size="14.00">SETBIT</text>
</g>
<!-- LayeredLev&#45;&gt;SimulatedLayersKeys -->
<g id="edge21" class="edge">
<title>LayeredLev&#45;&gt;SimulatedLayersKeys</title>
<path fill="none" stroke="black" d="M985.18,-44.63C1009.58,-41.01 1040.84,-36.94 1068.82,-35.01 1109.23,-32.23 1154.17,-31.61 1191.88,-31.78"/>
<polygon fill="black" stroke="black" points="1191.8,-35.28 1201.82,-31.84 1191.84,-28.28 1191.8,-35.28"/>
<text xml:space="preserve" text-anchor="middle" x="1127.32" y="-38.21" font-family="Times,serif" font-size="14.00">LGETBIT, LSETBIT</text>
</g>
<!-- LayeredSim&#45;&gt;KeysTop -->
<g id="edge20" class="edge">
<title>LayeredSim&#45;&gt;KeysTop</title>
<path fill="none" stroke="black" d="M661.07,-134.89C756.48,-142.52 990.78,-162.54 1185.82,-189.51 1200.87,-191.6 1217.3,-194.07 1231.99,-196.36"/>
<polygon fill="black" stroke="black" points="1231.42,-199.81 1241.84,-197.91 1232.5,-192.9 1231.42,-199.81"/>
<text xml:space="preserve" text-anchor="middle" x="941.69" y="-175.32" font-family="Times,serif" font-size="14.00">GETAOUT</text>
</g>
<!-- LayeredSim&#45;&gt;LayeredLev -->
<g id="edge18" class="edge">
<title>LayeredSim&#45;&gt;LayeredLev</title>
<path fill="none" stroke="black" d="M632.57,-113.11C644.48,-100.05 662.28,-83.4 681.82,-75.01 748.08,-46.57 832.47,-44.48 886.55,-46.92"/>
<polygon fill="black" stroke="black" points="886.26,-50.41 896.43,-47.45 886.63,-43.42 886.26,-50.41"/>
<text xml:space="preserve" text-anchor="middle" x="748.19" y="-78.21" font-family="Times,serif" font-size="14.00">LEVAL</text>
</g>
<!-- LayeredSim&#45;&gt;SimulatedLayersKeys -->
<g id="edge19" class="edge">
<title>LayeredSim&#45;&gt;SimulatedLayersKeys</title>
<path fill="none" stroke="black" d="M661.26,-131.22C776.99,-129.99 1088.62,-123.7 1185.82,-91.51 1207.51,-84.33 1229.17,-70.76 1245.87,-58.56"/>
<polygon fill="black" stroke="black" points="1247.52,-61.7 1253.4,-52.88 1243.31,-56.11 1247.52,-61.7"/>
<text xml:space="preserve" text-anchor="middle" x="941.69" y="-130.28" font-family="Times,serif" font-size="14.00">LGETAIN, LGETINAIN, LGETAOUT</text>
</g>
<!-- Lev -->
<g id="node9" class="node">
<title>Lev</title>
<polygon fill="none" stroke="black" points="968.69,-320.51 914.69,-320.51 914.69,-284.51 968.69,-284.51 968.69,-320.51"/>
<text xml:space="preserve" text-anchor="middle" x="941.69" y="-296.71" font-family="Helvetica,sans-Serif" font-size="14.00">Lev</text>
</g>
<!-- Lev&#45;&gt;KeysBot -->
<g id="edge13" class="edge">
<title>Lev&#45;&gt;KeysBot</title>
<path fill="none" stroke="black" d="M968.95,-301.51C1014.32,-300.56 1109.81,-301.95 1185.82,-326.01 1205.25,-332.16 1225.12,-342.87 1241.29,-352.93"/>
<polygon fill="black" stroke="black" points="1239.26,-355.79 1249.56,-358.25 1243.04,-349.9 1239.26,-355.79"/>
<text xml:space="preserve" text-anchor="middle" x="1127.32" y="-329.21" font-family="Times,serif" font-size="14.00">SETBIT</text>
</g>
<!-- Lev&#45;&gt;KeysTop -->
<g id="edge12" class="edge">
<title>Lev&#45;&gt;KeysTop</title>
<path fill="none" stroke="black" d="M968.76,-298.72C1027.31,-290.12 1165.75,-269.26 1185.82,-261.51 1206.65,-253.48 1227.79,-240.3 1244.4,-228.53"/>
<polygon fill="black" stroke="black" points="1246.38,-231.42 1252.4,-222.71 1242.26,-225.77 1246.38,-231.42"/>
<text xml:space="preserve" text-anchor="middle" x="1127.32" y="-285.62" font-family="Times,serif" font-size="14.00">GETBIT</text>
</g>
<!-- Sim&#45;&gt;KeysBot -->
<g id="edge11" class="edge">
<title>Sim&#45;&gt;KeysBot</title>
<path fill="none" stroke="black" d="M643.7,-312.56C655.23,-316.59 669.04,-320.88 681.82,-323.51 884.75,-365.27 1133.28,-374.74 1232.49,-376.89"/>
<polygon fill="black" stroke="black" points="1232.26,-380.38 1242.33,-377.08 1232.4,-373.38 1232.26,-380.38"/>
<text xml:space="preserve" text-anchor="middle" x="941.69" y="-371.79" font-family="Times,serif" font-size="14.00">GETAOUT</text>
</g>
<!-- Sim&#45;&gt;KeysTop -->
<g id="edge9" class="edge">
<title>Sim&#45;&gt;KeysTop</title>
<path fill="none" stroke="black" d="M643.81,-296.45C684.24,-287.32 764.08,-269.94 832.57,-259.01 988.67,-234.1 1029.18,-238.81 1185.82,-217.51 1200.88,-215.47 1217.31,-213 1232,-210.71"/>
<polygon fill="black" stroke="black" points="1232.51,-214.17 1241.84,-209.16 1231.42,-207.26 1232.51,-214.17"/>
<text xml:space="preserve" text-anchor="middle" x="941.69" y="-262.21" font-family="Times,serif" font-size="14.00">GETAIN, GETINAIN</text>
</g>
<!-- Sim&#45;&gt;Lev -->
<g id="edge10" class="edge">
<title>Sim&#45;&gt;Lev</title>
<path fill="none" stroke="black" d="M643.89,-302.51C701.22,-302.51 837.05,-302.51 903.2,-302.51"/>
<polygon fill="black" stroke="black" points="902.81,-306.01 912.81,-302.51 902.81,-299.01 902.81,-306.01"/>
<text xml:space="preserve" text-anchor="middle" x="748.19" y="-305.71" font-family="Times,serif" font-size="14.00">EVAL</text>
</g>
</g>
</svg>
