<?xml version="1.0" encoding="UTF-8" standalone="no"?>
<!DOCTYPE svg PUBLIC "-//W3C//DTD SVG 1.1//EN"
 "http://www.w3.org/Graphics/SVG/1.1/DTD/svg11.dtd">
<!-- Generated by graphviz version 14.0.1 (20251006.0113)
 -->
<!-- Title: G Pages: 1 -->
<svg width="1213pt" height="524pt"
 viewBox="0.00 0.00 1213.00 524.00" xmlns="http://www.w3.org/2000/svg" xmlns:xlink="http://www.w3.org/1999/xlink">
<g id="graph0" class="graph" transform="scale(1 1) rotate(0) translate(4 520.22)">
<title>G</title>
<polygon fill="white" stroke="none" points="-4,4 -4,-520.22 1209.25,-520.22 1209.25,4 -4,4"/>
<!-- adversary -->
<g id="node1" class="node">
<title>adversary</title>
<polygon fill="none" stroke="black" points="75.25,-308.09 0,-308.09 0,-272.09 75.25,-272.09 75.25,-308.09"/>
<text xml:space="preserve" text-anchor="middle" x="37.62" y="-284.66" font-family="Arial" font-size="14.00">adversary</text>
</g>
<!-- Mod -->
<g id="node2" class="node">
<title>Mod</title>
<polygon fill="none" stroke="black" points="223,-308.09 169,-308.09 169,-272.09 223,-272.09 223,-308.09"/>
<text xml:space="preserve" text-anchor="middle" x="196" y="-284.66" font-family="Arial" font-size="14.00">Mod</text>
</g>
<!-- adversary&#45;&gt;Mod -->
<g id="edge1" class="edge">
<title>adversary&#45;&gt;Mod</title>
<path fill="none" stroke="black" d="M64.66,-308.47C73.34,-313.6 83.34,-318.47 93.25,-321.09 118.07,-327.64 126.53,-328.84 151,-321.09 155.84,-319.55 160.61,-317.27 165.12,-314.63"/>
<polygon fill="black" stroke="black" points="166.83,-317.7 173.24,-309.26 162.97,-311.86 166.83,-317.7"/>
<text xml:space="preserve" text-anchor="middle" x="122.12" y="-328.96" font-family="Arial" font-size="10.00">GETAOUT</text>
</g>
<!-- adversary&#45;&gt;Mod -->
<g id="edge2" class="edge">
<title>adversary&#45;&gt;Mod</title>
<path fill="none" stroke="black" d="M75.68,-290.09C100.37,-290.09 132.69,-290.09 157.47,-290.09"/>
<polygon fill="black" stroke="black" points="157.45,-293.59 167.45,-290.09 157.45,-286.59 157.45,-293.59"/>
<text xml:space="preserve" text-anchor="middle" x="122.12" y="-292.59" font-family="Arial" font-size="10.00">SETBIT</text>
</g>
<!-- adversary&#45;&gt;Mod -->
<g id="edge3" class="edge">
<title>adversary&#45;&gt;Mod</title>
<path fill="none" stroke="black" d="M75.63,-277.71C81.47,-276.21 87.48,-274.91 93.25,-274.09 118.66,-270.44 125.72,-269.63 151,-274.09 153.31,-274.49 155.67,-275.01 158.02,-275.61"/>
<polygon fill="black" stroke="black" points="156.85,-278.92 167.44,-278.47 158.88,-272.22 156.85,-278.92"/>
<text xml:space="preserve" text-anchor="middle" x="122.12" y="-276.59" font-family="Arial" font-size="10.00">GBLG</text>
</g>
<!-- adversary&#45;&gt;Mod -->
<g id="edge4" class="edge">
<title>adversary&#45;&gt;Mod</title>
<path fill="none" stroke="black" d="M60.84,-271.76C70.24,-265.14 81.68,-258.47 93.25,-255.09 117.88,-247.87 126.77,-246.62 151,-255.09 157.26,-257.27 163.29,-260.76 168.78,-264.71"/>
<polygon fill="black" stroke="black" points="166.27,-267.18 176.26,-270.69 170.64,-261.71 166.27,-267.18"/>
<text xml:space="preserve" text-anchor="middle" x="122.12" y="-257.59" font-family="Arial" font-size="10.00">GETKEYSIN</text>
</g>
<!-- SimProxy -->
<g id="node3" class="node">
<title>SimProxy</title>
<polygon fill="none" stroke="black" points="382.25,-136.09 307.75,-136.09 307.75,-100.09 382.25,-100.09 382.25,-136.09"/>
<text xml:space="preserve" text-anchor="middle" x="345" y="-112.66" font-family="Arial" font-size="14.00">SimProxy</text>
</g>
<!-- Mod&#45;&gt;SimProxy -->
<g id="edge5" class="edge">
<title>Mod&#45;&gt;SimProxy</title>
<path fill="none" stroke="black" d="M199.31,-271.92C203.44,-246.18 214.32,-198.9 241,-169.09 255.82,-152.52 277.24,-140.72 296.71,-132.67"/>
<polygon fill="black" stroke="black" points="297.8,-136 305.86,-129.12 295.27,-129.47 297.8,-136"/>
<text xml:space="preserve" text-anchor="middle" x="265.38" y="-171.59" font-family="Arial" font-size="10.00">GBLGSIM</text>
</g>
<!-- RedProxy -->
<g id="node4" class="node">
<title>RedProxy</title>
<polygon fill="none" stroke="black" points="475.5,-443.09 400.25,-443.09 400.25,-407.09 475.5,-407.09 475.5,-443.09"/>
<text xml:space="preserve" text-anchor="middle" x="437.88" y="-419.66" font-family="Arial" font-size="14.00">RedProxy</text>
</g>
<!-- Mod&#45;&gt;RedProxy -->
<g id="edge6" class="edge">
<title>Mod&#45;&gt;RedProxy</title>
<path fill="none" stroke="black" d="M198.7,-308.26C202.08,-333.25 212.05,-377.68 241,-400.09 282.85,-432.47 345.44,-434.89 388.54,-431.71"/>
<polygon fill="black" stroke="black" points="388.72,-435.21 398.37,-430.84 388.1,-428.23 388.72,-435.21"/>
<text xml:space="preserve" text-anchor="middle" x="265.38" y="-425.81" font-family="Arial" font-size="10.00">GBLGRED</text>
</g>
<!-- Gate -->
<g id="node5" class="node">
<title>Gate</title>
<polygon fill="none" stroke="black" points="549.38,-205.09 495.38,-205.09 495.38,-169.09 549.38,-169.09 549.38,-205.09"/>
<text xml:space="preserve" text-anchor="middle" x="522.38" y="-181.66" font-family="Arial" font-size="14.00">Gate</text>
</g>
<!-- Mod&#45;&gt;Gate -->
<g id="edge7" class="edge">
<title>Mod&#45;&gt;Gate</title>
<path fill="none" stroke="black" d="M205.23,-271.59C212.54,-257.39 224.62,-238.49 241,-228.09 316.6,-180.08 426.47,-179.62 483.63,-183.36"/>
<polygon fill="black" stroke="black" points="483.26,-186.84 493.49,-184.09 483.78,-179.86 483.26,-186.84"/>
<text xml:space="preserve" text-anchor="middle" x="345" y="-200.4" font-family="Arial" font-size="10.00">GBLG</text>
</g>
<!-- LayerMap -->
<g id="node6" class="node">
<title>LayerMap</title>
<polygon fill="none" stroke="black" points="856,-192.09 779.25,-192.09 779.25,-156.09 856,-156.09 856,-192.09"/>
<text xml:space="preserve" text-anchor="middle" x="817.62" y="-168.66" font-family="Arial" font-size="14.00">LayerMap</text>
</g>
<!-- Mod&#45;&gt;LayerMap -->
<g id="edge8" class="edge">
<title>Mod&#45;&gt;LayerMap</title>
<path fill="none" stroke="black" d="M205.96,-308.53C213.53,-322.33 225.61,-340.71 241,-352.09 279.78,-380.73 295.79,-386.09 344,-386.09 344,-386.09 344,-386.09 652.38,-386.09 703.07,-386.09 725.42,-387.95 761.25,-352.09 801.38,-311.92 812.51,-243.21 815.55,-203.94"/>
<polygon fill="black" stroke="black" points="819.03,-204.24 816.17,-194.04 812.05,-203.81 819.03,-204.24"/>
<text xml:space="preserve" text-anchor="middle" x="522.38" y="-388.59" font-family="Arial" font-size="10.00">SETBIT</text>
</g>
<!-- Mod&#45;&gt;LayerMap -->
<g id="edge9" class="edge">
<title>Mod&#45;&gt;LayerMap</title>
<path fill="none" stroke="black" d="M223.25,-304.23C252.03,-318.39 299.97,-338.09 344,-338.09 344,-338.09 344,-338.09 652.38,-338.09 703.07,-338.09 723.66,-338.1 761.25,-304.09 790.51,-277.61 804.86,-233.09 811.49,-203.65"/>
<polygon fill="black" stroke="black" points="814.9,-204.41 813.5,-193.9 808.05,-202.99 814.9,-204.41"/>
<text xml:space="preserve" text-anchor="middle" x="522.38" y="-340.59" font-family="Arial" font-size="10.00">GETAOUT</text>
</g>
<!-- Mod&#45;&gt;LayerMap -->
<g id="edge10" class="edge">
<title>Mod&#45;&gt;LayerMap</title>
<path fill="none" stroke="black" d="M223.29,-290.09C252.7,-290.09 301.76,-290.09 344,-290.09 344,-290.09 344,-290.09 652.38,-290.09 701.93,-290.09 721.01,-295 761.25,-266.09 782.94,-250.5 797.69,-223.55 806.48,-202.84"/>
<polygon fill="black" stroke="black" points="809.64,-204.36 810.09,-193.78 803.14,-201.77 809.64,-204.36"/>
<text xml:space="preserve" text-anchor="middle" x="522.38" y="-292.59" font-family="Arial" font-size="10.00">GETKEYSIN</text>
</g>
<!-- Mod&#45;&gt;LayerMap -->
<g id="edge11" class="edge">
<title>Mod&#45;&gt;LayerMap</title>
<path fill="none" stroke="black" d="M223.46,-286.97C320.7,-275.36 658.03,-233.59 761.25,-201.09 764.93,-199.93 768.68,-198.56 772.39,-197.06"/>
<polygon fill="black" stroke="black" points="773.55,-200.37 781.33,-193.18 770.76,-193.95 773.55,-200.37"/>
<text xml:space="preserve" text-anchor="middle" x="522.38" y="-253.39" font-family="Arial" font-size="10.00">SETLAYER</text>
</g>
<!-- Sim -->
<g id="node7" class="node">
<title>Sim</title>
<polygon fill="none" stroke="black" points="549.38,-74.09 495.38,-74.09 495.38,-38.09 549.38,-38.09 549.38,-74.09"/>
<text xml:space="preserve" text-anchor="middle" x="522.38" y="-50.66" font-family="Arial" font-size="14.00">Sim</text>
</g>
<!-- SimProxy&#45;&gt;Sim -->
<g id="edge12" class="edge">
<title>SimProxy&#45;&gt;Sim</title>
<path fill="none" stroke="black" d="M382.34,-105.24C412.27,-94.66 454.53,-79.72 484.59,-69.09"/>
<polygon fill="black" stroke="black" points="485.38,-72.52 493.64,-65.89 483.04,-65.92 485.38,-72.52"/>
<text xml:space="preserve" text-anchor="middle" x="437.88" y="-100.53" font-family="Arial" font-size="10.00">GBLG</text>
</g>
<!-- SimRed -->
<g id="node8" class="node">
<title>SimRed</title>
<polygon fill="none" stroke="black" points="850,-444.09 785.25,-444.09 785.25,-408.09 850,-408.09 850,-444.09"/>
<text xml:space="preserve" text-anchor="middle" x="817.62" y="-420.66" font-family="Arial" font-size="14.00">SimRed</text>
</g>
<!-- RedProxy&#45;&gt;SimRed -->
<g id="edge13" class="edge">
<title>RedProxy&#45;&gt;SimRed</title>
<path fill="none" stroke="black" d="M475.78,-425.18C546.09,-425.37 698.89,-425.77 773.66,-425.97"/>
<polygon fill="black" stroke="black" points="773.45,-429.47 783.46,-426 773.47,-422.47 773.45,-429.47"/>
<text xml:space="preserve" text-anchor="middle" x="584.25" y="-428" font-family="Arial" font-size="10.00">GBLG</text>
</g>
<!-- Gate&#45;&gt;LayerMap -->
<g id="edge22" class="edge">
<title>Gate&#45;&gt;LayerMap</title>
<path fill="none" stroke="black" d="M549.54,-190.43C555.97,-191.12 562.85,-191.74 569.25,-192.09 628.91,-195.33 707.09,-190.29 761.25,-184.09 763.31,-183.85 765.4,-183.58 767.52,-183.3"/>
<polygon fill="black" stroke="black" points="768.03,-186.76 777.39,-181.8 766.98,-179.84 768.03,-186.76"/>
<text xml:space="preserve" text-anchor="middle" x="651.38" y="-195.57" font-family="Arial" font-size="10.00">GETKEYSOUT</text>
</g>
<!-- Enc -->
<g id="node10" class="node">
<title>Enc</title>
<polygon fill="none" stroke="black" points="678.38,-176.09 624.38,-176.09 624.38,-140.09 678.38,-140.09 678.38,-176.09"/>
<text xml:space="preserve" text-anchor="middle" x="651.38" y="-152.66" font-family="Arial" font-size="14.00">Enc</text>
</g>
<!-- Gate&#45;&gt;Enc -->
<g id="edge20" class="edge">
<title>Gate&#45;&gt;Enc</title>
<path fill="none" stroke="black" d="M540.85,-168.86C548.77,-161.88 558.72,-154.72 569.25,-151.09 583.03,-146.32 598.87,-146.54 612.88,-148.48"/>
<polygon fill="black" stroke="black" points="612.18,-151.92 622.64,-150.2 613.39,-145.02 612.18,-151.92"/>
<text xml:space="preserve" text-anchor="middle" x="584.25" y="-153.59" font-family="Arial" font-size="10.00">ENCN</text>
</g>
<!-- Gate&#45;&gt;Enc -->
<g id="edge21" class="edge">
<title>Gate&#45;&gt;Enc</title>
<path fill="none" stroke="black" d="M549.69,-181.08C568,-176.9 592.67,-171.26 613.01,-166.62"/>
<polygon fill="black" stroke="black" points="613.65,-170.06 622.62,-164.42 612.09,-163.24 613.65,-170.06"/>
<text xml:space="preserve" text-anchor="middle" x="584.25" y="-178.54" font-family="Arial" font-size="10.00">ENCM</text>
</g>
<!-- TopProxy -->
<g id="node14" class="node">
<title>TopProxy</title>
<polygon fill="none" stroke="black" points="1043.75,-275.09 971.5,-275.09 971.5,-239.09 1043.75,-239.09 1043.75,-275.09"/>
<text xml:space="preserve" text-anchor="middle" x="1007.62" y="-251.66" font-family="Arial" font-size="14.00">TopProxy</text>
</g>
<!-- LayerMap&#45;&gt;TopProxy -->
<g id="edge40" class="edge">
<title>LayerMap&#45;&gt;TopProxy</title>
<path fill="none" stroke="black" d="M836.08,-192.41C846.31,-202.19 859.94,-213.69 874,-221.09 900.85,-235.22 933.76,-244.19 960.07,-249.65"/>
<polygon fill="black" stroke="black" points="959.31,-253.06 969.8,-251.55 960.66,-246.19 959.31,-253.06"/>
<text xml:space="preserve" text-anchor="middle" x="913.75" y="-250.14" font-family="Arial" font-size="10.00">SETBITRED</text>
</g>
<!-- LayerMap&#45;&gt;TopProxy -->
<g id="edge41" class="edge">
<title>LayerMap&#45;&gt;TopProxy</title>
<path fill="none" stroke="black" d="M823.96,-192.58C831.29,-214.18 846.78,-248.87 874,-264.09 899.89,-278.55 933.24,-276.72 960.03,-271.31"/>
<polygon fill="black" stroke="black" points="960.61,-274.76 969.58,-269.14 959.06,-267.94 960.61,-274.76"/>
<text xml:space="preserve" text-anchor="middle" x="913.75" y="-277.79" font-family="Arial" font-size="10.00">GETAOUTRED</text>
</g>
<!-- BotProxy -->
<g id="node15" class="node">
<title>BotProxy</title>
<polygon fill="none" stroke="black" points="1043,-381.09 972.25,-381.09 972.25,-345.09 1043,-345.09 1043,-381.09"/>
<text xml:space="preserve" text-anchor="middle" x="1007.62" y="-357.66" font-family="Arial" font-size="14.00">BotProxy</text>
</g>
<!-- LayerMap&#45;&gt;BotProxy -->
<g id="edge42" class="edge">
<title>LayerMap&#45;&gt;BotProxy</title>
<path fill="none" stroke="black" d="M823.38,-192.38C830.66,-217.32 846.66,-262.19 874,-291.09 898.19,-316.65 933.51,-335.21 961.62,-347.08"/>
<polygon fill="black" stroke="black" points="960.02,-350.21 970.6,-350.73 962.66,-343.72 960.02,-350.21"/>
<text xml:space="preserve" text-anchor="middle" x="913.75" y="-344.88" font-family="Arial" font-size="10.00">GETKEYSINRED</text>
</g>
<!-- Keys -->
<g id="node16" class="node">
<title>Keys</title>
<polygon fill="none" stroke="black" points="1034.62,-131.09 980.62,-131.09 980.62,-95.09 1034.62,-95.09 1034.62,-131.09"/>
<text xml:space="preserve" text-anchor="middle" x="1007.62" y="-107.66" font-family="Arial" font-size="14.00">Keys</text>
</g>
<!-- LayerMap&#45;&gt;Keys -->
<g id="edge33" class="edge">
<title>LayerMap&#45;&gt;Keys</title>
<path fill="none" stroke="black" d="M856.43,-156.06C862.25,-153.57 868.24,-151.15 874,-149.09 891.43,-142.83 936.47,-130.93 969.24,-122.53"/>
<polygon fill="black" stroke="black" points="969.96,-125.95 978.78,-120.09 968.23,-119.17 969.96,-125.95"/>
<text xml:space="preserve" text-anchor="middle" x="913.75" y="-151.59" font-family="Arial" font-size="10.00">GETBIT</text>
</g>
<!-- LayerMap&#45;&gt;Keys -->
<g id="edge34" class="edge">
<title>LayerMap&#45;&gt;Keys</title>
<path fill="none" stroke="black" d="M828.63,-155.86C838.09,-140.71 853.83,-120.21 874,-111.09 903.92,-97.55 941.67,-99.72 969.24,-104.29"/>
<polygon fill="black" stroke="black" points="968.41,-107.7 978.88,-106.08 969.69,-100.82 968.41,-107.7"/>
<text xml:space="preserve" text-anchor="middle" x="913.75" y="-113.59" font-family="Arial" font-size="10.00">SETBIT</text>
</g>
<!-- LayerMap&#45;&gt;Keys -->
<g id="edge35" class="edge">
<title>LayerMap&#45;&gt;Keys</title>
<path fill="none" stroke="black" d="M824.02,-155.79C831.41,-134.43 846.96,-100.11 874,-85.09 904.89,-67.93 919.2,-76.6 953.5,-85.09 959.11,-86.47 964.79,-88.57 970.23,-91.01"/>
<polygon fill="black" stroke="black" points="968.47,-94.05 978.99,-95.35 971.58,-87.78 968.47,-94.05"/>
<text xml:space="preserve" text-anchor="middle" x="913.75" y="-87.59" font-family="Arial" font-size="10.00">GETKEYSIN</text>
</g>
<!-- LayerMap&#45;&gt;Keys -->
<g id="edge36" class="edge">
<title>LayerMap&#45;&gt;Keys</title>
<path fill="none" stroke="black" d="M821.35,-155.75C826.42,-129.08 840.04,-80.43 874,-59.09 903.92,-40.29 920.91,-45.43 953.5,-59.09 966.82,-64.67 978.49,-75.4 987.47,-85.83"/>
<polygon fill="black" stroke="black" points="984.72,-87.99 993.7,-93.61 990.18,-83.62 984.72,-87.99"/>
<text xml:space="preserve" text-anchor="middle" x="913.75" y="-61.59" font-family="Arial" font-size="10.00">GETKEYSOUT</text>
</g>
<!-- LayerMap&#45;&gt;Keys -->
<g id="edge37" class="edge">
<title>LayerMap&#45;&gt;Keys</title>
<path fill="none" stroke="black" d="M819.49,-155.67C822.09,-123.92 832.49,-59.52 874,-31.09 903.15,-11.12 922.46,-14.21 953.5,-31.09 974.18,-42.33 988.05,-65.48 996.42,-84.32"/>
<polygon fill="black" stroke="black" points="993.11,-85.47 1000.14,-93.39 999.58,-82.81 993.11,-85.47"/>
<text xml:space="preserve" text-anchor="middle" x="913.75" y="-33.59" font-family="Arial" font-size="10.00">GETAIN</text>
</g>
<!-- LayerMap&#45;&gt;Keys -->
<g id="edge38" class="edge">
<title>LayerMap&#45;&gt;Keys</title>
<path fill="none" stroke="black" d="M856.27,-192.45C884.6,-203.48 923.53,-212.49 953.5,-196.09 974.45,-184.62 988.35,-160.98 996.66,-141.85"/>
<polygon fill="black" stroke="black" points="999.88,-143.22 1000.35,-132.64 993.38,-140.62 999.88,-143.22"/>
<text xml:space="preserve" text-anchor="middle" x="913.75" y="-207.57" font-family="Arial" font-size="10.00">GETINAIN</text>
</g>
<!-- LayerMap&#45;&gt;Keys -->
<g id="edge39" class="edge">
<title>LayerMap&#45;&gt;Keys</title>
<path fill="none" stroke="black" d="M856.27,-176.66C884.24,-177.13 922.72,-174.66 953.5,-161.09 964.76,-156.12 975.26,-147.82 983.89,-139.5"/>
<polygon fill="black" stroke="black" points="986.35,-141.99 990.82,-132.38 981.34,-137.11 986.35,-141.99"/>
<text xml:space="preserve" text-anchor="middle" x="913.75" y="-178.98" font-family="Arial" font-size="10.00">GETAOUT</text>
</g>
<!-- Sim&#45;&gt;LayerMap -->
<g id="edge14" class="edge">
<title>Sim&#45;&gt;LayerMap</title>
<path fill="none" stroke="black" d="M549.8,-52.49C597.41,-47.53 698.48,-44.11 761.25,-93.09 779.16,-107.06 793.43,-128.45 803,-145.74"/>
<polygon fill="black" stroke="black" points="799.88,-147.32 807.63,-154.53 806.07,-144.05 799.88,-147.32"/>
<text xml:space="preserve" text-anchor="middle" x="651.38" y="-60.78" font-family="Arial" font-size="10.00">GETAIN</text>
</g>
<!-- Sim&#45;&gt;LayerMap -->
<g id="edge15" class="edge">
<title>Sim&#45;&gt;LayerMap</title>
<path fill="none" stroke="black" d="M549.79,-46.73C598.3,-31.43 702.03,-7.66 761.25,-60.09 786.54,-82.47 801.41,-119 809.26,-144.66"/>
<polygon fill="black" stroke="black" points="805.86,-145.49 811.97,-154.14 812.59,-143.56 805.86,-145.49"/>
<text xml:space="preserve" text-anchor="middle" x="651.38" y="-33.32" font-family="Arial" font-size="10.00">GETINAIN</text>
</g>
<!-- Sim&#45;&gt;LayerMap -->
<g id="edge17" class="edge">
<title>Sim&#45;&gt;LayerMap</title>
<path fill="none" stroke="black" d="M549.67,-39.4C567.85,-28.98 593.03,-16.71 617.25,-12.09 680.55,-0.01 712.52,13.09 761.25,-29.09 795.28,-58.53 808.47,-111.26 813.54,-144.37"/>
<polygon fill="black" stroke="black" points="810.04,-144.66 814.86,-154.1 816.98,-143.72 810.04,-144.66"/>
<text xml:space="preserve" text-anchor="middle" x="651.38" y="-14.59" font-family="Arial" font-size="10.00">GETAOUT</text>
</g>
<!-- Lev -->
<g id="node9" class="node">
<title>Lev</title>
<polygon fill="none" stroke="black" points="678.38,-122.09 624.38,-122.09 624.38,-86.09 678.38,-86.09 678.38,-122.09"/>
<text xml:space="preserve" text-anchor="middle" x="651.38" y="-98.66" font-family="Arial" font-size="14.00">Lev</text>
</g>
<!-- Sim&#45;&gt;Lev -->
<g id="edge16" class="edge">
<title>Sim&#45;&gt;Lev</title>
<path fill="none" stroke="black" d="M549.69,-66.03C568.17,-73.01 593.13,-82.45 613.57,-90.18"/>
<polygon fill="black" stroke="black" points="612.09,-93.36 622.68,-93.62 614.56,-86.81 612.09,-93.36"/>
<text xml:space="preserve" text-anchor="middle" x="584.25" y="-86.88" font-family="Arial" font-size="10.00">EVAL</text>
</g>
<!-- LevRed -->
<g id="node11" class="node">
<title>LevRed</title>
<polygon fill="none" stroke="black" points="1038.88,-483.09 976.38,-483.09 976.38,-447.09 1038.88,-447.09 1038.88,-483.09"/>
<text xml:space="preserve" text-anchor="middle" x="1007.62" y="-459.66" font-family="Arial" font-size="14.00">LevRed</text>
</g>
<!-- SimRed&#45;&gt;LevRed -->
<g id="edge28" class="edge">
<title>SimRed&#45;&gt;LevRed</title>
<path fill="none" stroke="black" d="M850.09,-432.61C881.55,-439.14 930.12,-449.21 964.81,-456.41"/>
<polygon fill="black" stroke="black" points="964.01,-459.82 974.51,-458.42 965.43,-452.97 964.01,-459.82"/>
<text xml:space="preserve" text-anchor="middle" x="913.75" y="-456.06" font-family="Arial" font-size="10.00">EVAL</text>
</g>
<!-- KeysTop -->
<g id="node12" class="node">
<title>KeysTop</title>
<polygon fill="none" stroke="black" points="1205.25,-333.09 1137.5,-333.09 1137.5,-297.09 1205.25,-297.09 1205.25,-333.09"/>
<text xml:space="preserve" text-anchor="middle" x="1171.38" y="-309.66" font-family="Arial" font-size="14.00">KeysTop</text>
</g>
<!-- SimRed&#45;&gt;KeysTop -->
<g id="edge26" class="edge">
<title>SimRed&#45;&gt;KeysTop</title>
<path fill="none" stroke="black" d="M850.42,-425.32C923.15,-423.33 1097.13,-417.15 1119.5,-403.09 1140.58,-389.83 1153.87,-364.45 1161.57,-344.35"/>
<polygon fill="black" stroke="black" points="1164.85,-345.56 1164.87,-334.96 1158.25,-343.24 1164.85,-345.56"/>
<text xml:space="preserve" text-anchor="middle" x="1007.62" y="-423.05" font-family="Arial" font-size="10.00">GETAIN</text>
</g>
<!-- SimRed&#45;&gt;KeysTop -->
<g id="edge27" class="edge">
<title>SimRed&#45;&gt;KeysTop</title>
<path fill="none" stroke="black" d="M823.3,-407.65C830.19,-384.78 845.43,-346.67 874,-329.09 914.88,-303.93 1053.32,-307.98 1125.6,-312.05"/>
<polygon fill="black" stroke="black" points="1125.33,-315.54 1135.52,-312.63 1125.74,-308.55 1125.33,-315.54"/>
<text xml:space="preserve" text-anchor="middle" x="1007.62" y="-312.6" font-family="Arial" font-size="10.00">GETINAIN</text>
</g>
<!-- KeysBot -->
<g id="node13" class="node">
<title>KeysBot</title>
<polygon fill="none" stroke="black" points="1204.5,-503.09 1138.25,-503.09 1138.25,-467.09 1204.5,-467.09 1204.5,-503.09"/>
<text xml:space="preserve" text-anchor="middle" x="1171.38" y="-479.66" font-family="Arial" font-size="14.00">KeysBot</text>
</g>
<!-- SimRed&#45;&gt;KeysBot -->
<g id="edge29" class="edge">
<title>SimRed&#45;&gt;KeysBot</title>
<path fill="none" stroke="black" d="M838,-444.48C848.05,-453.11 860.93,-462.84 874,-469.09 972.99,-516.41 1010.29,-505.72 1119.5,-495.09 1121.84,-494.86 1124.24,-494.57 1126.66,-494.24"/>
<polygon fill="black" stroke="black" points="1127.13,-497.71 1136.45,-492.67 1126.02,-490.8 1127.13,-497.71"/>
<text xml:space="preserve" text-anchor="middle" x="1007.62" y="-506.72" font-family="Arial" font-size="10.00">GETAOUT</text>
</g>
<!-- Lev&#45;&gt;LayerMap -->
<g id="edge18" class="edge">
<title>Lev&#45;&gt;LayerMap</title>
<path fill="none" stroke="black" d="M678.57,-113.78C700.77,-122.15 733.35,-134.8 761.25,-147.09 764,-148.3 766.81,-149.57 769.64,-150.87"/>
<polygon fill="black" stroke="black" points="767.97,-153.95 778.51,-155.03 770.94,-147.61 767.97,-153.95"/>
<text xml:space="preserve" text-anchor="middle" x="732.38" y="-149.59" font-family="Arial" font-size="10.00">GETBIT</text>
</g>
<!-- Lev&#45;&gt;LayerMap -->
<g id="edge19" class="edge">
<title>Lev&#45;&gt;LayerMap</title>
<path fill="none" stroke="black" d="M678.44,-99.33C701.44,-96.43 735.25,-95.38 761.25,-108.09 778.06,-116.31 791.67,-132.26 801.19,-146.42"/>
<polygon fill="black" stroke="black" points="798.01,-147.95 806.31,-154.54 803.93,-144.21 798.01,-147.95"/>
<text xml:space="preserve" text-anchor="middle" x="732.38" y="-110.59" font-family="Arial" font-size="10.00">SETBIT</text>
</g>
<!-- Enc&#45;&gt;LayerMap -->
<g id="edge23" class="edge">
<title>Enc&#45;&gt;LayerMap</title>
<path fill="none" stroke="black" d="M678.76,-160.66C702.7,-162.99 738.6,-166.49 767.76,-169.33"/>
<polygon fill="black" stroke="black" points="767.18,-172.79 777.47,-170.27 767.86,-165.82 767.18,-172.79"/>
<text xml:space="preserve" text-anchor="middle" x="732.38" y="-170.95" font-family="Arial" font-size="10.00">GETKEYSIN</text>
</g>
<!-- LevRed&#45;&gt;KeysTop -->
<g id="edge24" class="edge">
<title>LevRed&#45;&gt;KeysTop</title>
<path fill="none" stroke="black" d="M1039.16,-457.83C1067.66,-450.56 1107.53,-438.9 1119.5,-428.09 1144,-405.94 1157.41,-369.73 1164.22,-344.28"/>
<polygon fill="black" stroke="black" points="1167.54,-345.45 1166.54,-334.9 1160.74,-343.77 1167.54,-345.45"/>
<text xml:space="preserve" text-anchor="middle" x="1090.62" y="-453.88" font-family="Arial" font-size="10.00">GETBIT</text>
</g>
<!-- LevRed&#45;&gt;KeysBot -->
<g id="edge25" class="edge">
<title>LevRed&#45;&gt;KeysBot</title>
<path fill="none" stroke="black" d="M1039.05,-468.85C1063.71,-471.9 1098.8,-476.24 1126.5,-479.66"/>
<polygon fill="black" stroke="black" points="1126.01,-483.13 1136.37,-480.88 1126.87,-476.18 1126.01,-483.13"/>
<text xml:space="preserve" text-anchor="middle" x="1090.62" y="-481.12" font-family="Arial" font-size="10.00">SETBIT</text>
</g>
<!-- TopProxy&#45;&gt;KeysTop -->
<g id="edge30" class="edge">
<title>TopProxy&#45;&gt;KeysTop</title>
<path fill="none" stroke="black" d="M1044.16,-265.49C1066.2,-271.15 1094.91,-279.36 1119.5,-289.09 1121.95,-290.06 1124.44,-291.1 1126.94,-292.2"/>
<polygon fill="black" stroke="black" points="1125.22,-295.27 1135.76,-296.32 1128.18,-288.92 1125.22,-295.27"/>
<text xml:space="preserve" text-anchor="middle" x="1090.62" y="-291.59" font-family="Arial" font-size="10.00">SETBIT</text>
</g>
<!-- TopProxy&#45;&gt;KeysTop -->
<g id="edge31" class="edge">
<title>TopProxy&#45;&gt;KeysTop</title>
<path fill="none" stroke="black" d="M1044.25,-248.24C1066.85,-244.48 1096.13,-243.15 1119.5,-254.09 1134.18,-260.96 1146.11,-274.39 1154.72,-286.9"/>
<polygon fill="black" stroke="black" points="1151.75,-288.76 1160.08,-295.31 1157.66,-285 1151.75,-288.76"/>
<text xml:space="preserve" text-anchor="middle" x="1090.62" y="-256.59" font-family="Arial" font-size="10.00">GETAOUT</text>
</g>
<!-- BotProxy&#45;&gt;KeysBot -->
<g id="edge32" class="edge">
<title>BotProxy&#45;&gt;KeysBot</title>
<path fill="none" stroke="black" d="M1043.37,-374.63C1066.58,-383.49 1096.89,-397.4 1119.5,-416.09 1133.35,-427.53 1145.45,-443.52 1154.37,-457.23"/>
<polygon fill="black" stroke="black" points="1151.22,-458.79 1159.48,-465.42 1157.16,-455.09 1151.22,-458.79"/>
<text xml:space="preserve" text-anchor="middle" x="1090.62" y="-418.59" font-family="Arial" font-size="10.00">GETKEYSIN</text>
</g>
</g>
</svg>
