<?xml version="1.0" encoding="UTF-8" standalone="no"?>
<!DOCTYPE svg PUBLIC "-//W3C//DTD SVG 1.1//EN"
 "http://www.w3.org/Graphics/SVG/1.1/DTD/svg11.dtd">
<!-- Generated by graphviz version 14.0.1 (20251006.0113)
 -->
<!-- Title: G Pages: 1 -->
<svg width="1223pt" height="465pt"
 viewBox="0.00 0.00 1223.00 465.00" xmlns="http://www.w3.org/2000/svg" xmlns:xlink="http://www.w3.org/1999/xlink">
<g id="graph0" class="graph" transform="scale(1 1) rotate(0) translate(4 460.59)">
<title>G</title>
<polygon fill="white" stroke="none" points="-4,4 -4,-460.59 1219,-460.59 1219,4 -4,4"/>
<!-- adversary -->
<g id="node1" class="node">
<title>adversary</title>
<polygon fill="none" stroke="black" points="75.25,-306.59 0,-306.59 0,-270.59 75.25,-270.59 75.25,-306.59"/>
<text xml:space="preserve" text-anchor="middle" x="37.62" y="-283.17" font-family="Arial" font-size="14.00">adversary</text>
</g>
<!-- Mod^j -->
<g id="node2" class="node">
<title>Mod^j</title>
<polygon fill="none" stroke="black" points="223,-306.59 169,-306.59 169,-270.59 223,-270.59 223,-306.59"/>
<text xml:space="preserve" text-anchor="middle" x="196" y="-283.17" font-family="Arial" font-size="14.00">Mod^j</text>
</g>
<!-- adversary&#45;&gt;Mod^j -->
<g id="edge1" class="edge">
<title>adversary&#45;&gt;Mod^j</title>
<path fill="none" stroke="black" d="M64.66,-306.98C73.34,-312.1 83.34,-316.98 93.25,-319.59 118.07,-326.14 126.53,-327.35 151,-319.59 155.84,-318.06 160.61,-315.78 165.12,-313.14"/>
<polygon fill="black" stroke="black" points="166.83,-316.21 173.24,-307.77 162.97,-310.37 166.83,-316.21"/>
<text xml:space="preserve" text-anchor="middle" x="122.12" y="-327.47" font-family="Arial" font-size="10.00">GETAOUT</text>
</g>
<!-- adversary&#45;&gt;Mod^j -->
<g id="edge2" class="edge">
<title>adversary&#45;&gt;Mod^j</title>
<path fill="none" stroke="black" d="M75.68,-288.59C100.37,-288.59 132.69,-288.59 157.47,-288.59"/>
<polygon fill="black" stroke="black" points="157.45,-292.09 167.45,-288.59 157.45,-285.09 157.45,-292.09"/>
<text xml:space="preserve" text-anchor="middle" x="122.12" y="-291.09" font-family="Arial" font-size="10.00">SETBIT</text>
</g>
<!-- adversary&#45;&gt;Mod^j -->
<g id="edge3" class="edge">
<title>adversary&#45;&gt;Mod^j</title>
<path fill="none" stroke="black" d="M75.63,-276.22C81.47,-274.72 87.48,-273.42 93.25,-272.59 118.66,-268.95 125.72,-268.14 151,-272.59 153.31,-273 155.67,-273.52 158.02,-274.12"/>
<polygon fill="black" stroke="black" points="156.85,-277.43 167.44,-276.97 158.88,-270.73 156.85,-277.43"/>
<text xml:space="preserve" text-anchor="middle" x="122.12" y="-275.09" font-family="Arial" font-size="10.00">GBLG</text>
</g>
<!-- adversary&#45;&gt;Mod^j -->
<g id="edge4" class="edge">
<title>adversary&#45;&gt;Mod^j</title>
<path fill="none" stroke="black" d="M60.84,-270.27C70.24,-263.65 81.68,-256.98 93.25,-253.59 117.88,-246.38 126.77,-245.13 151,-253.59 157.26,-255.78 163.29,-259.27 168.78,-263.21"/>
<polygon fill="black" stroke="black" points="166.27,-265.68 176.26,-269.19 170.64,-260.22 166.27,-265.68"/>
<text xml:space="preserve" text-anchor="middle" x="122.12" y="-256.09" font-family="Arial" font-size="10.00">GETKEYSIN</text>
</g>
<!-- SimProxy -->
<g id="node3" class="node">
<title>SimProxy</title>
<polygon fill="none" stroke="black" points="382.25,-141.59 307.75,-141.59 307.75,-105.59 382.25,-105.59 382.25,-141.59"/>
<text xml:space="preserve" text-anchor="middle" x="345" y="-118.17" font-family="Arial" font-size="14.00">SimProxy</text>
</g>
<!-- Mod^j&#45;&gt;SimProxy -->
<g id="edge5" class="edge">
<title>Mod^j&#45;&gt;SimProxy</title>
<path fill="none" stroke="black" d="M199.08,-270.22C202.94,-244.23 213.5,-196.65 241,-167.59 255.82,-151.94 277.12,-141.59 296.51,-134.89"/>
<polygon fill="black" stroke="black" points="297.42,-138.27 305.89,-131.9 295.3,-131.6 297.42,-138.27"/>
<text xml:space="preserve" text-anchor="middle" x="265.38" y="-170.09" font-family="Arial" font-size="10.00">GBLGSIM</text>
</g>
<!-- RedProxy -->
<g id="node4" class="node">
<title>RedProxy</title>
<polygon fill="none" stroke="black" points="475.5,-441.59 400.25,-441.59 400.25,-405.59 475.5,-405.59 475.5,-441.59"/>
<text xml:space="preserve" text-anchor="middle" x="437.88" y="-418.17" font-family="Arial" font-size="14.00">RedProxy</text>
</g>
<!-- Mod^j&#45;&gt;RedProxy -->
<g id="edge6" class="edge">
<title>Mod^j&#45;&gt;RedProxy</title>
<path fill="none" stroke="black" d="M198.7,-306.77C202.08,-331.76 212.05,-376.19 241,-398.59 282.85,-430.98 345.44,-433.4 388.54,-430.22"/>
<polygon fill="black" stroke="black" points="388.72,-433.71 398.37,-429.35 388.1,-426.74 388.72,-433.71"/>
<text xml:space="preserve" text-anchor="middle" x="265.38" y="-424.32" font-family="Arial" font-size="10.00">GBLGRED</text>
</g>
<!-- Gate -->
<g id="node5" class="node">
<title>Gate</title>
<polygon fill="none" stroke="black" points="549.38,-203.59 495.38,-203.59 495.38,-167.59 549.38,-167.59 549.38,-203.59"/>
<text xml:space="preserve" text-anchor="middle" x="522.38" y="-180.17" font-family="Arial" font-size="14.00">Gate</text>
</g>
<!-- Mod^j&#45;&gt;Gate -->
<g id="edge7" class="edge">
<title>Mod^j&#45;&gt;Gate</title>
<path fill="none" stroke="black" d="M205.23,-270.1C212.54,-255.89 224.62,-236.99 241,-226.59 316.6,-178.59 426.47,-178.12 483.63,-181.86"/>
<polygon fill="black" stroke="black" points="483.26,-185.34 493.49,-182.6 483.78,-178.36 483.26,-185.34"/>
<text xml:space="preserve" text-anchor="middle" x="345" y="-198.91" font-family="Arial" font-size="10.00">GBLG</text>
</g>
<!-- LayerMap^j -->
<g id="node6" class="node">
<title>LayerMap^j</title>
<polygon fill="none" stroke="black" points="865.75,-190.59 779.25,-190.59 779.25,-154.59 865.75,-154.59 865.75,-190.59"/>
<text xml:space="preserve" text-anchor="middle" x="822.5" y="-167.17" font-family="Arial" font-size="14.00">LayerMap^j</text>
</g>
<!-- Mod^j&#45;&gt;LayerMap^j -->
<g id="edge8" class="edge">
<title>Mod^j&#45;&gt;LayerMap^j</title>
<path fill="none" stroke="black" d="M205.96,-307.04C213.53,-320.84 225.61,-339.22 241,-350.59 279.78,-379.24 295.79,-384.59 344,-384.59 344,-384.59 344,-384.59 652.38,-384.59 703.07,-384.59 724.98,-386.01 761.25,-350.59 802.2,-310.6 815.32,-241.83 819.52,-202.5"/>
<polygon fill="black" stroke="black" points="823,-202.86 820.44,-192.58 816.03,-202.22 823,-202.86"/>
<text xml:space="preserve" text-anchor="middle" x="522.38" y="-387.09" font-family="Arial" font-size="10.00">SETBIT</text>
</g>
<!-- Mod^j&#45;&gt;LayerMap^j -->
<g id="edge9" class="edge">
<title>Mod^j&#45;&gt;LayerMap^j</title>
<path fill="none" stroke="black" d="M223.25,-302.74C252.03,-316.89 299.97,-336.59 344,-336.59 344,-336.59 344,-336.59 652.38,-336.59 703.07,-336.59 723.13,-336.01 761.25,-302.59 791.47,-276.1 807.54,-231.27 815.29,-201.8"/>
<polygon fill="black" stroke="black" points="818.61,-202.97 817.59,-192.43 811.81,-201.31 818.61,-202.97"/>
<text xml:space="preserve" text-anchor="middle" x="522.38" y="-339.09" font-family="Arial" font-size="10.00">GETAOUT</text>
</g>
<!-- Mod^j&#45;&gt;LayerMap^j -->
<g id="edge10" class="edge">
<title>Mod^j&#45;&gt;LayerMap^j</title>
<path fill="none" stroke="black" d="M223.29,-288.59C252.7,-288.59 301.76,-288.59 344,-288.59 344,-288.59 344,-288.59 652.38,-288.59 701.93,-288.59 720.47,-292.73 761.25,-264.59 783.76,-249.06 799.95,-222.1 809.83,-201.37"/>
<polygon fill="black" stroke="black" points="813.01,-202.83 813.93,-192.28 806.63,-199.96 813.01,-202.83"/>
<text xml:space="preserve" text-anchor="middle" x="522.38" y="-291.09" font-family="Arial" font-size="10.00">GETKEYSIN</text>
</g>
<!-- Mod^j&#45;&gt;LayerMap^j -->
<g id="edge11" class="edge">
<title>Mod^j&#45;&gt;LayerMap^j</title>
<path fill="none" stroke="black" d="M223.42,-285.37C320.55,-273.37 657.51,-230.42 761.25,-199.59 765.46,-198.34 769.75,-196.86 774.02,-195.25"/>
<polygon fill="black" stroke="black" points="775.12,-198.58 783.08,-191.59 772.49,-192.09 775.12,-198.58"/>
<text xml:space="preserve" text-anchor="middle" x="522.38" y="-251.06" font-family="Arial" font-size="10.00">SETLAYER</text>
</g>
<!-- Sim -->
<g id="node7" class="node">
<title>Sim</title>
<polygon fill="none" stroke="black" points="549.38,-72.59 495.38,-72.59 495.38,-36.59 549.38,-36.59 549.38,-72.59"/>
<text xml:space="preserve" text-anchor="middle" x="522.38" y="-49.17" font-family="Arial" font-size="14.00">Sim</text>
</g>
<!-- SimProxy&#45;&gt;Sim -->
<g id="edge12" class="edge">
<title>SimProxy&#45;&gt;Sim</title>
<path fill="none" stroke="black" d="M382.34,-109.3C412.27,-97.52 454.53,-80.89 484.59,-69.07"/>
<polygon fill="black" stroke="black" points="485.63,-72.42 493.66,-65.5 483.07,-65.9 485.63,-72.42"/>
<text xml:space="preserve" text-anchor="middle" x="437.88" y="-103.77" font-family="Arial" font-size="10.00">GBLG</text>
</g>
<!-- GateRed -->
<g id="node8" class="node">
<title>GateRed</title>
<polygon fill="none" stroke="black" points="857.88,-441.59 787.12,-441.59 787.12,-405.59 857.88,-405.59 857.88,-441.59"/>
<text xml:space="preserve" text-anchor="middle" x="822.5" y="-418.17" font-family="Arial" font-size="14.00">GateRed</text>
</g>
<!-- RedProxy&#45;&gt;GateRed -->
<g id="edge13" class="edge">
<title>RedProxy&#45;&gt;GateRed</title>
<path fill="none" stroke="black" d="M475.91,-423.59C546.2,-423.59 698.74,-423.59 775.47,-423.59"/>
<polygon fill="black" stroke="black" points="775.15,-427.09 785.15,-423.59 775.15,-420.09 775.15,-427.09"/>
<text xml:space="preserve" text-anchor="middle" x="584.25" y="-426.09" font-family="Arial" font-size="10.00">GBLG</text>
</g>
<!-- Gate&#45;&gt;LayerMap^j -->
<g id="edge22" class="edge">
<title>Gate&#45;&gt;LayerMap^j</title>
<path fill="none" stroke="black" d="M549.54,-188.94C555.97,-189.63 562.85,-190.25 569.25,-190.59 628.46,-193.81 704.69,-188.66 761.25,-182.59 763.3,-182.37 765.38,-182.13 767.48,-181.87"/>
<polygon fill="black" stroke="black" points="767.87,-185.35 777.3,-180.51 766.91,-178.41 767.87,-185.35"/>
<text xml:space="preserve" text-anchor="middle" x="651.38" y="-194.05" font-family="Arial" font-size="10.00">GETKEYSOUT</text>
</g>
<!-- Enc -->
<g id="node10" class="node">
<title>Enc</title>
<polygon fill="none" stroke="black" points="678.38,-174.59 624.38,-174.59 624.38,-138.59 678.38,-138.59 678.38,-174.59"/>
<text xml:space="preserve" text-anchor="middle" x="651.38" y="-151.17" font-family="Arial" font-size="14.00">Enc</text>
</g>
<!-- Gate&#45;&gt;Enc -->
<g id="edge20" class="edge">
<title>Gate&#45;&gt;Enc</title>
<path fill="none" stroke="black" d="M540.85,-167.37C548.77,-160.39 558.72,-153.23 569.25,-149.59 583.03,-144.83 598.87,-145.04 612.88,-146.99"/>
<polygon fill="black" stroke="black" points="612.18,-150.42 622.64,-148.71 613.39,-143.53 612.18,-150.42"/>
<text xml:space="preserve" text-anchor="middle" x="584.25" y="-152.09" font-family="Arial" font-size="10.00">ENCN</text>
</g>
<!-- Gate&#45;&gt;Enc -->
<g id="edge21" class="edge">
<title>Gate&#45;&gt;Enc</title>
<path fill="none" stroke="black" d="M549.69,-179.58C568,-175.4 592.67,-169.77 613.01,-165.13"/>
<polygon fill="black" stroke="black" points="613.65,-168.57 622.62,-162.93 612.09,-161.75 613.65,-168.57"/>
<text xml:space="preserve" text-anchor="middle" x="584.25" y="-177.04" font-family="Arial" font-size="10.00">ENCM</text>
</g>
<!-- TopProxy -->
<g id="node14" class="node">
<title>TopProxy</title>
<polygon fill="none" stroke="black" points="1053.5,-353.59 981.25,-353.59 981.25,-317.59 1053.5,-317.59 1053.5,-353.59"/>
<text xml:space="preserve" text-anchor="middle" x="1017.38" y="-330.17" font-family="Arial" font-size="14.00">TopProxy</text>
</g>
<!-- LayerMap^j&#45;&gt;TopProxy -->
<g id="edge38" class="edge">
<title>LayerMap^j&#45;&gt;TopProxy</title>
<path fill="none" stroke="black" d="M827.96,-191.08C835.19,-217.13 852,-264.38 883.75,-290.59 912.11,-314.01 928.54,-301.43 963.25,-313.59 965.58,-314.41 967.96,-315.28 970.36,-316.17"/>
<polygon fill="black" stroke="black" points="968.86,-319.35 979.45,-319.7 971.4,-312.82 968.86,-319.35"/>
<text xml:space="preserve" text-anchor="middle" x="923.5" y="-316.09" font-family="Arial" font-size="10.00">SETBITRED</text>
</g>
<!-- LayerMap^j&#45;&gt;TopProxy -->
<g id="edge39" class="edge">
<title>LayerMap^j&#45;&gt;TopProxy</title>
<path fill="none" stroke="black" d="M824.69,-190.92C827.93,-223.99 839.87,-293.23 883.75,-325.59 908.06,-343.52 942.15,-345.74 969.69,-343.62"/>
<polygon fill="black" stroke="black" points="969.93,-347.11 979.53,-342.63 969.23,-340.15 969.93,-347.11"/>
<text xml:space="preserve" text-anchor="middle" x="923.5" y="-346.77" font-family="Arial" font-size="10.00">GETAOUTRED</text>
</g>
<!-- BotProxy -->
<g id="node15" class="node">
<title>BotProxy</title>
<polygon fill="none" stroke="black" points="1052.75,-298.59 982,-298.59 982,-262.59 1052.75,-262.59 1052.75,-298.59"/>
<text xml:space="preserve" text-anchor="middle" x="1017.38" y="-275.17" font-family="Arial" font-size="14.00">BotProxy</text>
</g>
<!-- LayerMap^j&#45;&gt;BotProxy -->
<g id="edge40" class="edge">
<title>LayerMap^j&#45;&gt;BotProxy</title>
<path fill="none" stroke="black" d="M833.45,-190.9C843.78,-208.14 861.52,-233.38 883.75,-247.59 909.72,-264.2 943.5,-272.45 970.46,-276.55"/>
<polygon fill="black" stroke="black" points="969.68,-279.98 980.06,-277.86 970.63,-273.04 969.68,-279.98"/>
<text xml:space="preserve" text-anchor="middle" x="923.5" y="-277.79" font-family="Arial" font-size="10.00">GETKEYSINRED</text>
</g>
<!-- Keys -->
<g id="node16" class="node">
<title>Keys</title>
<polygon fill="none" stroke="black" points="1044.38,-155.59 990.38,-155.59 990.38,-119.59 1044.38,-119.59 1044.38,-155.59"/>
<text xml:space="preserve" text-anchor="middle" x="1017.38" y="-132.17" font-family="Arial" font-size="14.00">Keys</text>
</g>
<!-- LayerMap^j&#45;&gt;Keys -->
<g id="edge31" class="edge">
<title>LayerMap^j&#45;&gt;Keys</title>
<path fill="none" stroke="black" d="M825.25,-154.12C829.3,-122.97 842.41,-60.73 883.75,-33.59 913.29,-14.2 933.11,-15.15 963.25,-33.59 989.67,-49.77 1003.48,-83.68 1010.32,-108.4"/>
<polygon fill="black" stroke="black" points="1006.87,-109.03 1012.7,-117.88 1013.66,-107.33 1006.87,-109.03"/>
<text xml:space="preserve" text-anchor="middle" x="923.5" y="-36.09" font-family="Arial" font-size="10.00">GETBIT</text>
</g>
<!-- LayerMap^j&#45;&gt;Keys -->
<g id="edge32" class="edge">
<title>LayerMap^j&#45;&gt;Keys</title>
<path fill="none" stroke="black" d="M839.98,-190.88C851.12,-201.8 866.83,-214.68 883.75,-220.59 917.1,-232.25 932.25,-237.56 963.25,-220.59 984.2,-209.13 998.1,-185.48 1006.41,-166.36"/>
<polygon fill="black" stroke="black" points="1009.63,-167.73 1010.1,-157.14 1003.13,-165.12 1009.63,-167.73"/>
<text xml:space="preserve" text-anchor="middle" x="923.5" y="-233.92" font-family="Arial" font-size="10.00">SETBIT</text>
</g>
<!-- LayerMap^j&#45;&gt;Keys -->
<g id="edge33" class="edge">
<title>LayerMap^j&#45;&gt;Keys</title>
<path fill="none" stroke="black" d="M866.13,-186.26C894.54,-193.05 932.21,-197.54 963.25,-185.59 975.03,-181.06 985.82,-172.57 994.56,-163.98"/>
<polygon fill="black" stroke="black" points="996.9,-166.6 1001.23,-156.93 991.81,-161.79 996.9,-166.6"/>
<text xml:space="preserve" text-anchor="middle" x="923.5" y="-195.52" font-family="Arial" font-size="10.00">GETKEYSIN</text>
</g>
<!-- LayerMap^j&#45;&gt;Keys -->
<g id="edge34" class="edge">
<title>LayerMap^j&#45;&gt;Keys</title>
<path fill="none" stroke="black" d="M866.17,-166.82C893.93,-162.84 930.86,-157.09 963.25,-150.59 968.31,-149.58 973.61,-148.41 978.83,-147.19"/>
<polygon fill="black" stroke="black" points="979.61,-150.61 988.52,-144.87 977.98,-143.8 979.61,-150.61"/>
<text xml:space="preserve" text-anchor="middle" x="923.5" y="-166.72" font-family="Arial" font-size="10.00">GETKEYSOUT</text>
</g>
<!-- LayerMap^j&#45;&gt;Keys -->
<g id="edge35" class="edge">
<title>LayerMap^j&#45;&gt;Keys</title>
<path fill="none" stroke="black" d="M846.69,-154.19C857.33,-146.88 870.52,-139.33 883.75,-135.59 914.83,-126.81 951.66,-128.25 978.61,-131.35"/>
<polygon fill="black" stroke="black" points="978.01,-134.8 988.38,-132.61 978.91,-127.86 978.01,-134.8"/>
<text xml:space="preserve" text-anchor="middle" x="923.5" y="-138.09" font-family="Arial" font-size="10.00">GETAIN</text>
</g>
<!-- LayerMap^j&#45;&gt;Keys -->
<g id="edge36" class="edge">
<title>LayerMap^j&#45;&gt;Keys</title>
<path fill="none" stroke="black" d="M835.62,-154.31C846.35,-139.94 863.42,-120.99 883.75,-112.59 916.41,-99.11 928.77,-104.89 963.25,-112.59 968.62,-113.79 974.1,-115.6 979.39,-117.71"/>
<polygon fill="black" stroke="black" points="977.95,-120.9 988.51,-121.73 980.78,-114.5 977.95,-120.9"/>
<text xml:space="preserve" text-anchor="middle" x="923.5" y="-115.09" font-family="Arial" font-size="10.00">GETINAIN</text>
</g>
<!-- LayerMap^j&#45;&gt;Keys -->
<g id="edge37" class="edge">
<title>LayerMap^j&#45;&gt;Keys</title>
<path fill="none" stroke="black" d="M830.62,-154.16C839.57,-133.86 857.09,-102.28 883.75,-88.59 915.18,-72.46 930.34,-75.73 963.25,-88.59 975.29,-93.3 986.25,-102.16 995.04,-111.06"/>
<polygon fill="black" stroke="black" points="992.41,-113.37 1001.75,-118.37 997.57,-108.63 992.41,-113.37"/>
<text xml:space="preserve" text-anchor="middle" x="923.5" y="-91.09" font-family="Arial" font-size="10.00">GETAOUT</text>
</g>
<!-- Sim&#45;&gt;LayerMap^j -->
<g id="edge14" class="edge">
<title>Sim&#45;&gt;LayerMap^j</title>
<path fill="none" stroke="black" d="M549.62,-51.37C596.96,-47.03 697.61,-44.67 761.25,-92.59 779.83,-106.58 795.44,-127.79 806.11,-144.86"/>
<polygon fill="black" stroke="black" points="802.88,-146.28 811.03,-153.04 808.88,-142.67 802.88,-146.28"/>
<text xml:space="preserve" text-anchor="middle" x="651.38" y="-60.72" font-family="Arial" font-size="10.00">GETAIN</text>
</g>
<!-- Sim&#45;&gt;LayerMap^j -->
<g id="edge15" class="edge">
<title>Sim&#45;&gt;LayerMap^j</title>
<path fill="none" stroke="black" d="M549.6,-45.61C597.8,-30.94 701.05,-8.28 761.25,-59.59 787.22,-81.73 803.71,-117.94 812.75,-143.4"/>
<polygon fill="black" stroke="black" points="809.41,-144.44 815.9,-152.81 816.04,-142.21 809.41,-144.44"/>
<text xml:space="preserve" text-anchor="middle" x="651.38" y="-32.95" font-family="Arial" font-size="10.00">GETINAIN</text>
</g>
<!-- Sim&#45;&gt;LayerMap^j -->
<g id="edge17" class="edge">
<title>Sim&#45;&gt;LayerMap^j</title>
<path fill="none" stroke="black" d="M549.71,-38.2C567.9,-27.98 593.09,-15.98 617.25,-11.59 680.66,-0.09 711.86,12.81 761.25,-28.59 796.02,-57.74 811.08,-110.36 817.34,-143.28"/>
<polygon fill="black" stroke="black" points="813.86,-143.69 819.01,-152.95 820.76,-142.5 813.86,-143.69"/>
<text xml:space="preserve" text-anchor="middle" x="651.38" y="-14.09" font-family="Arial" font-size="10.00">GETAOUT</text>
</g>
<!-- Lev -->
<g id="node9" class="node">
<title>Lev</title>
<polygon fill="none" stroke="black" points="678.38,-120.59 624.38,-120.59 624.38,-84.59 678.38,-84.59 678.38,-120.59"/>
<text xml:space="preserve" text-anchor="middle" x="651.38" y="-97.17" font-family="Arial" font-size="14.00">Lev</text>
</g>
<!-- Sim&#45;&gt;Lev -->
<g id="edge16" class="edge">
<title>Sim&#45;&gt;Lev</title>
<path fill="none" stroke="black" d="M549.69,-64.54C568.17,-71.52 593.13,-80.96 613.57,-88.68"/>
<polygon fill="black" stroke="black" points="612.09,-91.86 622.68,-92.13 614.56,-85.32 612.09,-91.86"/>
<text xml:space="preserve" text-anchor="middle" x="584.25" y="-85.39" font-family="Arial" font-size="10.00">EVAL</text>
</g>
<!-- EncRed -->
<g id="node11" class="node">
<title>EncRed</title>
<polygon fill="none" stroke="black" points="1049.38,-456.59 985.38,-456.59 985.38,-420.59 1049.38,-420.59 1049.38,-456.59"/>
<text xml:space="preserve" text-anchor="middle" x="1017.38" y="-433.17" font-family="Arial" font-size="14.00">EncRed</text>
</g>
<!-- GateRed&#45;&gt;EncRed -->
<g id="edge24" class="edge">
<title>GateRed&#45;&gt;EncRed</title>
<path fill="none" stroke="black" d="M858.13,-421.45C886.51,-420.26 927.66,-419.85 963.25,-424.59 966.68,-425.05 970.21,-425.66 973.74,-426.37"/>
<polygon fill="black" stroke="black" points="972.89,-429.76 983.42,-428.57 974.44,-422.94 972.89,-429.76"/>
<text xml:space="preserve" text-anchor="middle" x="923.5" y="-427.09" font-family="Arial" font-size="10.00">ENCN</text>
</g>
<!-- GateRed&#45;&gt;EncRed -->
<g id="edge25" class="edge">
<title>GateRed&#45;&gt;EncRed</title>
<path fill="none" stroke="black" d="M858.35,-432.33C866.62,-434.07 875.46,-435.65 883.75,-436.59 913.61,-440.01 947.49,-440.46 973.54,-440.08"/>
<polygon fill="black" stroke="black" points="973.47,-443.58 983.4,-439.89 973.33,-436.59 973.47,-443.58"/>
<text xml:space="preserve" text-anchor="middle" x="923.5" y="-442.69" font-family="Arial" font-size="10.00">ENCM</text>
</g>
<!-- KeysBot -->
<g id="node12" class="node">
<title>KeysBot</title>
<polygon fill="none" stroke="black" points="1214.25,-316.59 1148,-316.59 1148,-280.59 1214.25,-280.59 1214.25,-316.59"/>
<text xml:space="preserve" text-anchor="middle" x="1181.12" y="-293.17" font-family="Arial" font-size="14.00">KeysBot</text>
</g>
<!-- GateRed&#45;&gt;KeysBot -->
<g id="edge26" class="edge">
<title>GateRed&#45;&gt;KeysBot</title>
<path fill="none" stroke="black" d="M858.26,-418.41C936.06,-406.68 1118.3,-378.54 1129.25,-370.59 1143.09,-360.55 1137.59,-350.7 1147.25,-336.59 1149.78,-332.89 1152.62,-329.15 1155.55,-325.52"/>
<polygon fill="black" stroke="black" points="1158.11,-327.91 1161.88,-318.01 1152.76,-323.4 1158.11,-327.91"/>
<text xml:space="preserve" text-anchor="middle" x="1017.38" y="-400.98" font-family="Arial" font-size="10.00">GETKEYSOUT</text>
</g>
<!-- Lev&#45;&gt;LayerMap^j -->
<g id="edge18" class="edge">
<title>Lev&#45;&gt;LayerMap^j</title>
<path fill="none" stroke="black" d="M678.47,-112.52C700.61,-121.03 733.16,-133.76 761.25,-145.59 764.37,-146.91 767.57,-148.28 770.8,-149.68"/>
<polygon fill="black" stroke="black" points="769.15,-152.77 779.71,-153.58 771.96,-146.36 769.15,-152.77"/>
<text xml:space="preserve" text-anchor="middle" x="732.38" y="-148.09" font-family="Arial" font-size="10.00">GETBIT</text>
</g>
<!-- Lev&#45;&gt;LayerMap^j -->
<g id="edge19" class="edge">
<title>Lev&#45;&gt;LayerMap^j</title>
<path fill="none" stroke="black" d="M678.77,-98.05C701.67,-95.36 735.16,-94.51 761.25,-106.59 778.86,-114.75 793.65,-130.7 804.17,-144.88"/>
<polygon fill="black" stroke="black" points="801.29,-146.86 809.89,-153.05 807.02,-142.85 801.29,-146.86"/>
<text xml:space="preserve" text-anchor="middle" x="732.38" y="-109.09" font-family="Arial" font-size="10.00">SETBIT</text>
</g>
<!-- Enc&#45;&gt;LayerMap^j -->
<g id="edge23" class="edge">
<title>Enc&#45;&gt;LayerMap^j</title>
<path fill="none" stroke="black" d="M678.8,-159.09C702.42,-161.33 737.77,-164.67 767.38,-167.47"/>
<polygon fill="black" stroke="black" points="767.03,-170.96 777.32,-168.41 767.69,-163.99 767.03,-170.96"/>
<text xml:space="preserve" text-anchor="middle" x="732.38" y="-169" font-family="Arial" font-size="10.00">GETKEYSIN</text>
</g>
<!-- KeysTop -->
<g id="node13" class="node">
<title>KeysTop</title>
<polygon fill="none" stroke="black" points="1215,-381.59 1147.25,-381.59 1147.25,-345.59 1215,-345.59 1215,-381.59"/>
<text xml:space="preserve" text-anchor="middle" x="1181.12" y="-358.17" font-family="Arial" font-size="14.00">KeysTop</text>
</g>
<!-- EncRed&#45;&gt;KeysTop -->
<g id="edge27" class="edge">
<title>EncRed&#45;&gt;KeysTop</title>
<path fill="none" stroke="black" d="M1049.73,-432.34C1072.64,-426.99 1104,-418 1129.25,-404.59 1137.28,-400.33 1145.27,-394.72 1152.46,-389.02"/>
<polygon fill="black" stroke="black" points="1154.46,-391.9 1159.91,-382.82 1149.99,-386.52 1154.46,-391.9"/>
<text xml:space="preserve" text-anchor="middle" x="1100.38" y="-428.68" font-family="Arial" font-size="10.00">GETKEYSIN</text>
</g>
<!-- TopProxy&#45;&gt;KeysTop -->
<g id="edge28" class="edge">
<title>TopProxy&#45;&gt;KeysTop</title>
<path fill="none" stroke="black" d="M1053.87,-341.74C1077.9,-345.9 1109.84,-351.43 1135.58,-355.88"/>
<polygon fill="black" stroke="black" points="1134.98,-359.33 1145.43,-357.59 1136.17,-352.43 1134.98,-359.33"/>
<text xml:space="preserve" text-anchor="middle" x="1100.38" y="-357.04" font-family="Arial" font-size="10.00">SETBIT</text>
</g>
<!-- TopProxy&#45;&gt;KeysTop -->
<g id="edge29" class="edge">
<title>TopProxy&#45;&gt;KeysTop</title>
<path fill="none" stroke="black" d="M1053.57,-327.61C1075.75,-324.06 1104.72,-322.15 1129.25,-329.59 1136.19,-331.7 1143.04,-335.1 1149.37,-338.95"/>
<polygon fill="black" stroke="black" points="1147.28,-341.77 1157.54,-344.42 1151.17,-335.95 1147.28,-341.77"/>
<text xml:space="preserve" text-anchor="middle" x="1100.38" y="-332.09" font-family="Arial" font-size="10.00">GETAOUT</text>
</g>
<!-- BotProxy&#45;&gt;KeysBot -->
<g id="edge30" class="edge">
<title>BotProxy&#45;&gt;KeysBot</title>
<path fill="none" stroke="black" d="M1053.07,-284.45C1077.49,-287.17 1110.36,-290.83 1136.55,-293.74"/>
<polygon fill="black" stroke="black" points="1135.86,-297.19 1146.18,-294.82 1136.63,-290.23 1135.86,-297.19"/>
<text xml:space="preserve" text-anchor="middle" x="1100.38" y="-295.27" font-family="Arial" font-size="10.00">GETKEYSIN</text>
</g>
</g>
</svg>
